<?xml version="1.0" encoding="UTF-8" standalone="no"?>
<svg
   xmlns:dc="http://purl.org/dc/elements/1.1/"
   xmlns:cc="http://creativecommons.org/ns#"
   xmlns:rdf="http://www.w3.org/1999/02/22-rdf-syntax-ns#"
   xmlns:svg="http://www.w3.org/2000/svg"
   xmlns="http://www.w3.org/2000/svg"
   xmlns:sodipodi="http://sodipodi.sourceforge.net/DTD/sodipodi-0.dtd"
   xmlns:inkscape="http://www.inkscape.org/namespaces/inkscape"
   width="1431pt"
   height="380pt"
   viewBox="0 0 1431 380"
   version="1.1"
   id="svg4124"
   inkscape:version="0.48.0 r9654"
   sodipodi:docname="InsermLogo.svg">
  <metadata
     id="metadata4364">
    <rdf:RDF>
      <cc:Work
         rdf:about="">
        <dc:format>image/svg+xml</dc:format>
        <dc:type
           rdf:resource="http://purl.org/dc/dcmitype/StillImage" />
        <dc:title></dc:title>
      </cc:Work>
    </rdf:RDF>
  </metadata>
  <defs
     id="defs4362">
    <inkscape:perspective
       sodipodi:type="inkscape:persp3d"
       inkscape:vp_x="0 : 237.5 : 1"
       inkscape:vp_y="0 : 1000 : 0"
       inkscape:vp_z="1788.75 : 237.5 : 1"
       inkscape:persp3d-origin="894.375 : 158.33333 : 1"
       id="perspective4366" />
  </defs>
  <sodipodi:namedview
     pagecolor="#ffffff"
     bordercolor="#666666"
     borderopacity="1"
     objecttolerance="10"
     gridtolerance="10"
     guidetolerance="10"
     inkscape:pageopacity="0"
     inkscape:pageshadow="2"
     inkscape:window-width="1410"
     inkscape:window-height="871"
     id="namedview4360"
     showgrid="false"
     inkscape:zoom="1.2622983"
     inkscape:cx="557.51825"
     inkscape:cy="295.35245"
     inkscape:window-x="1344"
     inkscape:window-y="21"
     inkscape:window-maximized="0"
     inkscape:current-layer="svg4124" />
  <path
     d=" M 603.69 0.00 L 642.28 0.00 C 642.35 51.43 642.31 102.86 642.30 154.30 C 629.43 154.32 616.56 154.34 603.69 154.29 C 603.68 102.86 603.68 51.43 603.69 0.00 Z"
     id="path4130"
     fill="#221718"
     style="fill:#000000;fill-opacity:1" />
  <path
     d=" M 801.72 56.87 C 808.44 45.97 820.62 39.45 833.05 37.53 C 855.00 34.37 878.43 39.48 896.24 52.92 C 895.79 54.13 894.73 54.94 893.90 55.86 C 888.29 61.45 882.99 67.35 877.41 72.97 C 866.91 64.99 853.31 60.35 840.09 62.30 C 835.91 62.99 830.95 65.25 830.25 69.93 C 830.21 75.08 835.82 77.07 839.98 78.02 C 855.99 81.44 873.46 82.90 886.95 93.11 C 900.32 103.13 901.33 123.89 892.10 137.00 C 884.21 148.30 870.62 153.98 857.44 156.21 C 840.68 158.79 823.03 156.81 807.63 149.54 C 800.23 146.04 793.57 141.17 787.60 135.61 C 793.65 129.33 800.26 123.62 806.51 117.54 C 807.34 116.88 808.43 115.14 809.49 116.57 C 818.67 124.90 830.42 131.24 843.08 131.30 C 849.13 131.18 855.65 130.31 860.53 126.43 C 863.88 123.80 864.63 117.75 860.81 115.21 C 856.46 112.17 850.99 111.56 845.90 110.71 C 835.62 109.25 825.29 107.30 815.66 103.32 C 808.79 100.52 802.75 95.42 799.60 88.62 C 794.86 78.58 795.82 66.22 801.72 56.87 Z"
     id="path4136"
     fill="#221718"
     style="fill:#000000;fill-opacity:1" />
  <path
     d="M 1208.5938 45.78125 C 1194.9316 45.686356 1181.0156 48.359375 1169.25 55.53125 C 1152.9375 65.26875 1143.1375 83.0875 1139.4375 101.3125 C 1135.5875 121.125 1135.975 142.4875 1144.25 161.1875 C 1151.8125 178.5875 1168.1562 191.36875 1186.5312 195.59375 C 1205.3187 199.91875 1225.575 199.2 1243.6875 192.375 C 1260.6375 185.9625 1273.5563 172.2125 1282.5938 156.875 C 1271.3937 152.2875 1259.9187 148.36875 1248.5938 144.09375 C 1245.8437 148.20625 1243.3937 152.625 1239.8438 156.125 C 1234.6563 161.575 1227.25 164.46875 1219.875 165.21875 C 1211.5 166.05625 1202.4813 165.73125 1195.2188 160.96875 C 1184.8813 154.63125 1180.4812 142.0625 1180.2812 130.4375 C 1214.2062 130.3875 1248.1188 130.3875 1282.0312 130.4375 C 1281.9562 107.6875 1277.9 82.94375 1261.625 65.84375 C 1248.9125 52.04375 1229.8187 45.59375 1211.3438 45.84375 C 1210.4359 45.813281 1209.5046 45.787576 1208.5938 45.78125 z M 1209.375 76.25 C 1216.8713 76.023462 1224.4664 78.56875 1230 83.6875 C 1235.3875 88.9 1237.4313 96.5 1238.1562 103.75 C 1219.0562 103.75 1199.9437 103.775 1180.8438 103.75 C 1182.2313 95.35 1185.9875 86.93125 1193.125 81.90625 C 1197.7789 78.285938 1203.5445 76.426196 1209.375 76.25 z "
     id="path4138"
     transform="scale(0.8,0.8)"
     style="fill:#000000;fill-opacity:1" />
  <path
     d=" M 706.93 52.36 C 714.60 44.35 724.74 38.19 736.03 37.48 C 746.64 36.95 758.23 39.31 766.03 47.02 C 771.82 52.72 773.53 61.16 773.98 68.98 C 774.67 97.41 774.20 125.87 774.27 154.32 C 763.02 154.35 751.77 154.24 740.53 154.37 C 740.18 130.58 740.53 106.77 740.36 82.97 C 740.21 78.65 740.03 73.98 737.25 70.42 C 733.52 65.54 726.81 64.11 720.98 64.85 C 716.18 65.20 711.36 67.83 709.28 72.31 C 705.95 79.36 706.71 87.39 706.61 94.96 C 706.50 114.77 706.84 134.59 706.44 154.38 C 695.20 154.22 683.95 154.38 672.71 154.30 C 672.65 123.22 672.70 92.14 672.68 61.05 C 672.80 54.14 672.42 47.21 672.90 40.31 C 684.19 40.47 695.49 40.38 706.78 40.35 C 706.94 44.35 706.84 48.36 706.93 52.36 Z"
     id="path4140"
     fill="#221718"
     style="fill:#000000;fill-opacity:1" />
  <path
     d=" M 1181.46 38.61 C 1191.48 36.47 1202.40 36.93 1211.84 41.16 C 1216.47 43.38 1220.20 46.97 1223.88 50.46 C 1231.68 43.48 1241.45 38.43 1252.02 37.70 C 1265.72 36.02 1281.89 40.13 1289.22 52.80 C 1293.35 61.17 1292.67 70.89 1292.88 79.97 C 1292.89 104.72 1292.84 129.47 1292.91 154.22 C 1281.79 154.48 1270.66 154.17 1259.55 154.38 C 1259.12 132.26 1259.59 110.12 1259.31 88.00 C 1258.95 82.03 1259.48 75.34 1255.46 70.40 C 1248.85 62.47 1234.76 63.70 1229.25 72.30 C 1226.62 76.35 1226.58 81.35 1226.33 86.00 C 1226.29 108.77 1226.34 131.53 1226.30 154.29 C 1215.20 154.34 1204.10 154.33 1193.00 154.29 C 1192.98 131.19 1193.04 108.08 1192.97 84.98 C 1192.59 80.11 1192.41 74.73 1189.33 70.69 C 1183.35 63.61 1171.25 63.16 1164.87 69.93 C 1160.74 74.53 1159.81 81.01 1159.88 86.97 C 1159.90 109.39 1159.83 131.81 1159.91 154.22 C 1148.92 154.37 1137.91 154.38 1126.92 154.24 L 1126.45 153.77 C 1126.33 115.99 1126.38 78.20 1126.43 40.41 C 1137.54 40.31 1148.65 40.48 1159.76 40.33 C 1159.96 44.36 1159.82 48.40 1159.94 52.44 C 1165.67 45.99 1172.87 40.50 1181.46 38.61 Z"
     id="path4142"
     fill="#221718"
     style="fill:#000000;fill-opacity:1" />
  <path
     d=" M 1077.26 52.88 C 1086.23 44.66 1097.80 39.42 1110.00 38.66 C 1110.00 48.73 1110.00 58.81 1110.00 68.89 C 1101.44 70.52 1092.08 70.66 1084.62 75.70 C 1079.40 79.28 1078.23 86.06 1078.02 91.94 C 1077.97 112.73 1078.01 133.51 1078.00 154.30 C 1066.70 154.29 1055.40 154.39 1044.10 154.25 C 1044.13 116.17 1044.12 78.08 1044.11 40.00 C 1055.17 40.00 1066.23 40.00 1077.30 40.00 C 1077.31 44.29 1077.35 48.59 1077.26 52.88 Z"
     id="path4144"
     fill="#221718"
     style="fill:#000000;fill-opacity:1" />
  <path
     fill="#221718"
     d=" M 116.14 40.80 C 119.51 40.70 122.88 40.71 126.25 40.74 C 126.30 53.58 126.27 66.41 126.26 79.25 C 122.88 79.29 119.51 79.30 116.14 79.19 C 116.19 66.39 116.18 53.60 116.14 40.80 Z"
     id="path4146"
     style="fill:#000000;fill-opacity:1" />
  <path
     fill="#221718"
     d=" M 215.00 40.74 C 217.84 40.73 220.68 40.73 223.52 40.72 C 223.55 43.00 223.55 45.27 223.53 47.55 C 220.68 47.56 217.84 47.56 215.00 47.54 C 215.00 45.27 215.00 43.00 215.00 40.74 Z"
     id="path4148"
     style="fill:#000000;fill-opacity:1" />
  <path
     fill="#221718"
     d=" M 196.46 42.47 C 199.31 42.44 202.15 42.44 205.00 42.47 C 205.00 45.46 205.00 48.45 205.00 51.44 C 206.92 51.44 208.84 51.43 210.77 51.43 C 210.80 53.21 210.82 55.00 210.83 56.78 C 208.89 56.83 206.94 56.84 205.00 56.86 C 205.06 61.63 204.88 66.39 205.10 71.15 C 206.02 72.99 208.64 72.20 210.31 72.46 C 210.27 74.71 210.26 76.96 210.24 79.21 C 206.88 79.52 203.37 80.01 200.12 78.83 C 198.11 77.89 196.61 75.88 196.51 73.63 C 196.30 68.05 196.54 62.46 196.42 56.88 C 195.02 56.85 193.62 56.82 192.22 56.79 C 192.18 55.05 192.14 53.31 192.10 51.57 C 193.55 51.50 195.00 51.45 196.46 51.40 C 196.44 48.42 196.44 45.44 196.46 42.47 Z"
     id="path4150"
     style="fill:#000000;fill-opacity:1" />
  <path
     fill="#221718"
     d=" M 232.00 42.47 C 234.84 42.44 237.68 42.44 240.53 42.46 C 240.57 45.45 240.56 48.45 240.54 51.44 C 242.44 51.45 244.34 51.45 246.24 51.47 C 246.26 53.23 246.28 54.99 246.30 56.75 C 244.51 57.18 241.75 55.95 240.57 57.62 C 240.55 62.45 240.38 67.30 240.80 72.12 C 242.48 72.28 244.16 72.38 245.85 72.40 C 245.83 74.63 245.83 76.87 245.86 79.10 C 242.96 79.47 239.97 79.93 237.08 79.23 C 234.16 78.81 231.81 75.98 231.99 73.02 C 231.92 67.59 232.14 62.16 231.85 56.74 C 230.47 56.77 229.09 56.80 227.72 56.82 C 227.72 55.02 227.73 53.23 227.74 51.44 C 229.10 51.47 230.46 51.52 231.83 51.58 C 232.04 48.55 232.00 45.51 232.00 42.47 Z"
     id="path4152"
     style="fill:#000000;fill-opacity:1" />
  <path
     fill="#221718"
     d=" M 284.47 42.46 C 287.40 42.43 290.33 42.43 293.27 42.48 C 293.26 45.49 293.25 48.49 293.33 51.49 C 295.14 51.46 296.95 51.44 298.78 51.42 C 298.81 53.22 298.83 55.02 298.83 56.83 C 297.00 56.81 295.18 56.79 293.35 56.73 C 293.34 61.72 292.99 66.74 293.49 71.71 C 294.86 72.77 296.72 72.31 298.32 72.53 C 298.28 74.77 298.26 77.01 298.22 79.25 C 293.87 79.58 287.56 80.67 285.24 75.87 C 283.64 69.71 284.79 63.23 284.44 56.94 C 283.09 56.86 281.75 56.78 280.41 56.71 C 280.43 54.95 280.44 53.20 280.45 51.44 C 281.80 51.45 283.16 51.47 284.52 51.46 C 284.42 48.46 284.41 45.46 284.47 42.46 Z"
     id="path4154"
     style="fill:#000000;fill-opacity:1" />
  <path
     fill="#221718"
     d=" M 142.39 52.57 C 146.41 49.68 152.23 48.86 156.50 51.64 C 159.29 53.46 159.52 57.01 159.56 60.01 C 159.56 66.43 159.56 72.84 159.54 79.26 C 156.60 79.28 153.67 79.28 150.74 79.25 C 150.59 72.85 150.99 66.43 150.55 60.04 C 150.08 55.92 143.14 55.95 142.70 60.05 C 141.80 66.41 142.50 72.86 142.25 79.26 C 139.41 79.28 136.58 79.27 133.75 79.26 C 133.72 69.75 133.72 60.25 133.75 50.74 C 136.68 50.72 139.61 50.72 142.55 50.76 C 142.51 51.21 142.43 52.12 142.39 52.57 Z"
     id="path4156"
     style="fill:#000000;fill-opacity:1" />
  <path
     fill="#221718"
     d=" M 166.11 55.00 C 168.32 51.27 172.80 49.70 176.96 49.75 C 181.68 49.84 186.75 51.02 190.22 54.43 C 188.35 56.01 186.54 57.64 184.58 59.11 C 181.77 56.92 176.04 54.42 173.73 58.19 C 173.91 58.52 174.26 59.18 174.44 59.51 C 178.69 61.13 183.63 60.84 187.48 63.54 C 190.98 65.87 191.48 71.08 189.43 74.52 C 186.81 78.63 181.61 80.15 176.97 80.05 C 171.72 80.24 166.64 78.12 162.69 74.73 C 164.40 72.88 166.25 71.18 168.13 69.51 C 171.89 72.75 178.19 75.46 182.14 71.03 C 179.31 67.30 173.90 68.75 170.05 66.78 C 165.27 65.29 163.43 59.06 166.11 55.00 Z"
     id="path4158"
     style="fill:#000000;fill-opacity:1" />
  <path
     fill="#221718"
     d=" M 250.27 50.64 C 253.20 50.73 256.12 50.74 259.05 50.75 C 259.07 57.54 258.78 64.34 259.20 71.11 C 261.22 74.48 267.64 73.21 267.41 68.97 C 267.49 62.98 267.49 56.98 267.35 50.99 C 270.31 50.62 273.29 50.69 276.27 50.76 C 276.26 60.26 276.30 69.75 276.25 79.25 C 273.41 79.26 270.58 79.38 267.75 79.17 C 267.64 78.72 267.41 77.82 267.30 77.38 C 263.76 80.24 258.76 80.81 254.54 79.34 C 250.47 77.69 249.93 72.78 250.00 68.98 C 250.33 62.87 250.01 56.75 250.27 50.64 Z"
     id="path4160"
     style="fill:#000000;fill-opacity:1" />
  <path
     fill="#221718"
     d=" M 303.52 53.53 C 307.09 49.56 313.04 49.25 317.95 50.23 C 320.99 51.02 324.36 51.93 326.37 54.54 C 324.59 56.00 322.97 57.67 321.07 58.99 C 317.87 57.25 313.79 54.92 310.29 57.29 C 310.21 57.69 310.05 58.51 309.97 58.91 C 314.05 61.37 319.42 60.57 323.46 63.30 C 327.18 65.58 327.85 70.96 325.72 74.55 C 324.21 77.17 321.32 78.56 318.54 79.42 C 311.74 81.26 304.32 79.33 299.00 74.81 C 300.66 72.77 302.63 71.04 304.71 69.45 C 307.76 72.41 312.53 74.75 316.65 72.51 C 317.60 72.13 318.79 70.27 317.39 69.72 C 313.17 67.48 307.61 68.56 303.81 65.29 C 300.27 62.43 300.33 56.63 303.52 53.53 Z"
     id="path4162" />
  <path
     fill="#221718"
     d=" M 215.00 50.75 C 217.73 51.05 221.22 49.97 223.49 51.33 C 223.69 59.54 223.46 67.75 223.59 75.96 C 223.38 77.04 224.20 79.77 222.12 79.26 C 219.74 79.33 217.37 79.27 215.00 79.25 C 215.00 69.75 215.00 60.25 215.00 50.75 Z"
     id="path4164"
     style="fill:#000000;fill-opacity:1" />
  <path
     fill="#221718"
     d=" M 68.36 90.05 C 71.92 89.96 75.49 89.92 79.06 90.10 C 76.05 92.55 73.35 95.44 70.04 97.49 C 68.17 97.64 66.29 97.55 64.41 97.52 C 65.69 95.01 67.08 92.56 68.36 90.05 Z"
     id="path4172"
     style="fill:#000000;fill-opacity:1" />
  <path
     fill="#221718"
     d=" M 22.36 90.97 C 25.31 90.63 28.28 90.69 31.25 90.75 C 31.27 94.84 31.31 98.94 31.22 103.03 C 33.59 101.56 36.07 99.89 38.99 99.96 C 43.27 99.64 48.01 102.59 48.33 107.16 C 48.84 114.51 48.45 121.91 48.52 129.27 C 45.59 129.27 42.67 129.27 39.75 129.26 C 39.52 123.02 40.11 116.72 39.47 110.51 C 38.73 106.45 32.39 106.59 31.60 110.54 C 30.84 116.72 31.48 123.01 31.27 129.24 C 28.36 129.27 25.45 129.27 22.55 129.31 C 22.26 116.54 22.62 103.75 22.36 90.97 Z"
     id="path4174"
     style="fill:#000000;fill-opacity:1" />
  <path
     fill="#221718"
     d=" M 188.45 97.52 C 188.42 95.23 188.44 92.95 188.57 90.67 C 191.46 90.73 194.36 90.74 197.26 90.74 C 197.32 93.05 197.30 95.36 197.00 97.66 C 194.15 97.55 191.30 97.54 188.45 97.52 Z"
     id="path4176"
     style="fill:#000000;fill-opacity:1" />
  <path
     fill="#221718"
     d=" M 4.04 92.37 C 6.95 92.44 9.87 92.45 12.79 92.44 C 12.84 95.41 12.84 98.38 12.81 101.35 C 14.62 101.42 16.44 101.46 18.26 101.52 C 18.28 103.26 18.30 105.01 18.32 106.75 C 16.48 106.79 14.64 106.82 12.80 106.88 C 12.88 111.95 12.75 117.02 12.94 122.09 C 14.54 122.27 16.16 122.39 17.77 122.54 C 17.82 124.76 17.87 126.98 17.93 129.21 C 13.43 129.63 6.79 130.73 4.57 125.58 C 3.31 119.46 4.31 113.08 4.00 106.86 C 2.67 106.84 1.33 106.83 0.00 106.82 L 0.00 101.31 C 1.33 101.39 2.66 101.45 3.99 101.50 C 3.99 98.46 3.97 95.41 4.04 92.37 Z"
     id="path4178"
     style="fill:#000000;fill-opacity:1" />
  <path
     fill="#221718"
     d=" M 170.11 92.33 C 172.99 92.46 175.88 92.47 178.77 92.43 C 178.80 95.47 178.74 98.52 179.14 101.55 C 180.85 101.50 182.55 101.47 184.26 101.45 C 184.27 103.24 184.28 105.03 184.28 106.82 C 182.57 106.80 180.87 106.77 179.16 106.72 C 178.52 111.82 178.86 116.97 178.97 122.09 C 180.57 122.27 182.18 122.42 183.80 122.54 C 183.84 124.81 183.83 127.08 183.72 129.35 C 180.26 129.46 176.56 130.13 173.31 128.61 C 170.85 127.51 169.98 124.62 170.00 122.13 C 169.96 117.03 170.02 111.94 170.00 106.85 C 168.66 106.84 167.31 106.84 165.97 106.84 C 165.98 105.00 166.00 103.17 166.09 101.33 C 167.39 101.38 168.69 101.42 170.00 101.46 C 170.00 98.42 169.92 95.37 170.11 92.33 Z"
     id="path4180"
     style="fill:#000000;fill-opacity:1" />
  <path
     d="M 85.9375 124.8125 C 83.033081 124.79946 80.134375 125.32656 77.5 126.25 C 65.9125 131.3 63.83125 148.375 71.46875 157.5625 C 80.36875 166.675 98.19375 164.04375 103.53125 152.21875 C 100.80625 150.94375 98.10625 149.625 95.40625 148.3125 C 93.08125 152.1625 88.69375 156.05 83.90625 154.1875 C 80.10625 153.4875 78.74375 149.525 77.96875 146.25 C 86.58125 146.225 95.2 146.25 103.8125 146.25 C 103.9625 140.525 102.85625 134.375 98.90625 130 C 95.585937 126.35156 90.778198 124.83423 85.9375 124.8125 z M 85.5625 132.71875 C 85.805649 132.72898 86.060937 132.77031 86.3125 132.8125 C 89.9375 132.8 91.96875 136.0875 92.84375 139.1875 C 87.99375 139.3875 83.1125 139.39375 78.25 139.15625 C 79.246094 135.88672 81.915268 132.56535 85.5625 132.71875 z "
     transform="scale(0.8,0.8)"
     id="path4186"
     style="fill:#000000;fill-opacity:1" />
  <path
     fill="#221718"
     d=" M 96.44 102.93 C 100.84 98.98 107.84 98.98 112.33 102.78 C 116.31 100.28 121.49 98.71 125.91 101.07 C 128.60 102.20 129.83 105.21 129.81 107.97 C 129.91 115.04 129.76 122.10 129.88 129.17 C 126.92 129.29 123.96 129.30 121.00 129.25 C 120.98 123.15 121.05 117.04 120.96 110.93 C 121.03 108.53 118.36 106.28 116.02 107.21 C 113.97 107.73 112.96 109.92 113.04 111.89 C 112.95 117.68 113.02 123.46 113.00 129.25 C 110.28 129.27 107.55 129.38 104.83 129.19 C 103.64 122.67 105.31 115.68 103.87 109.09 C 102.34 106.12 97.30 106.59 96.67 110.01 C 95.76 116.36 96.52 122.85 96.26 129.25 C 93.42 129.28 90.57 129.28 87.73 129.24 C 87.73 119.75 87.72 110.25 87.74 100.76 C 90.49 100.74 93.26 100.59 96.01 100.86 C 96.11 101.38 96.33 102.41 96.44 102.93 Z"
     id="path4188"
     style="fill:#000000;fill-opacity:1" />
  <path
     d="M 187.3125 124.9375 C 186.48359 124.92505 185.70469 124.93281 184.9375 124.96875 C 178.3875 124.68125 170.71875 128.875 170.96875 136.25 C 174.61875 136.25 178.2875 136.3375 181.9375 136.1875 C 182.875 133.2 185.93125 131.3875 188.96875 132.5 C 191.54375 133.1 191.18125 136.2125 191.09375 138.25 C 185.10625 139.2125 178.4875 139.61875 173.5 143.46875 C 167.9875 147.53125 168.28125 157.19375 174.21875 160.71875 C 179.66875 164.06875 187.04375 162.88125 191.96875 159.03125 C 192.09375 159.63125 192.34375 160.80625 192.46875 161.40625 C 195.86875 161.74375 199.30625 161.5625 202.71875 161.5625 C 200.98125 152.025 202.55625 142.25 201.78125 132.625 C 199.99844 126.51094 193.11484 125.02466 187.3125 124.9375 z M 191.375 144.90625 C 191.35 148.50625 190.26875 152.80625 186.40625 154.03125 C 183.41875 156.28125 178.1875 152.025 181.25 148.9375 C 184.175 146.7 187.9625 146.13125 191.375 144.90625 z "
     transform="scale(0.8,0.8)"
     id="path4190"
     style="fill:#000000;fill-opacity:1" />
  <path
     d="M 268.84375 124.9375 C 263.4137 124.96545 257.92188 127.94531 255.5625 133.03125 C 252.225 140.24375 251.8 149.51875 256.3125 156.34375 C 260.8 163.01875 270.9875 164.60625 277.1875 159.40625 C 277.1 164.19375 277.1625 168.9625 277.1875 173.75 C 280.8875 173.75 284.6125 173.83125 288.3125 173.65625 C 287.9875 157.73125 288.4125 141.8 288.0625 125.875 C 284.8375 125.9 281.61875 125.8 278.40625 126.0625 C 278.26875 126.6 277.98125 127.7 277.84375 128.25 C 275.31719 125.9625 272.10178 124.92073 268.84375 124.9375 z M 271.125 132.78125 C 273.71072 132.73602 276.12656 135.16484 277 137.53125 C 278.675 142.76875 278.6375 150.01875 273.75 153.53125 C 269.65 156.16875 265.45 151.90625 264.5625 148.03125 C 263.3125 142.98125 263.7 135.5125 269.3125 133.25 C 269.9125 132.94766 270.5283 132.79169 271.125 132.78125 z "
     transform="scale(0.8,0.8)"
     id="path4192"
     style="fill:#000000;fill-opacity:1" />
  <path
     d="M 354.96875 124.84375 C 352.33621 124.84038 349.69687 125.27344 347.25 126 C 334.1875 131 332.21875 151.425 343.03125 159.6875 C 352.40625 166.05 367.475 163.06875 372.4375 152.53125 C 370.025 150.60625 367.06875 149.6 364.28125 148.375 C 362.34375 152.8125 357.0625 156.10625 352.3125 153.96875 C 348.925 152.95625 347.75 149.36875 347.125 146.28125 C 355.725 146.23125 364.30625 146.25 372.90625 146.25 C 373.00625 140.1 371.78125 133.325 367.03125 129 C 363.69531 126.03906 359.35632 124.84937 354.96875 124.84375 z M 354.3125 132.75 C 354.5519 132.75107 354.78047 132.78047 355.03125 132.8125 C 358.73125 132.525 361.35 135.8375 361.6875 139.25 C 356.8625 139.35 352.0125 139.40625 347.1875 139.15625 C 348.38281 136.07422 350.72148 132.73389 354.3125 132.75 z "
     transform="scale(0.8,0.8)"
     id="path4194"
     style="fill:#000000;fill-opacity:1" />
  <path
     fill="#221718"
     d=" M 308.38 100.51 C 314.43 98.98 321.84 99.94 326.38 104.51 C 324.62 106.00 323.00 107.67 321.13 109.04 C 317.86 107.36 313.95 104.98 310.34 107.25 C 310.24 107.67 310.03 108.52 309.92 108.94 C 313.88 111.30 318.95 110.62 322.92 113.03 C 326.82 114.95 327.85 120.21 326.09 123.92 C 324.79 126.70 321.96 128.34 319.16 129.26 C 312.21 131.33 304.35 129.59 298.96 124.72 C 300.70 122.81 302.65 121.12 304.70 119.56 C 307.70 122.24 311.97 124.56 316.03 122.85 C 317.74 122.51 318.86 119.97 316.72 119.28 C 311.89 117.66 305.45 118.38 302.28 113.63 C 299.06 108.56 302.94 101.85 308.38 100.51 Z"
     id="path4196" />
  <path
     fill="#221718"
     d=" M 188.57 129.33 C 188.38 119.78 188.34 110.21 188.59 100.67 C 191.48 100.73 194.37 100.74 197.26 100.75 C 197.28 110.25 197.28 119.75 197.26 129.25 C 194.36 129.26 191.46 129.27 188.57 129.33 Z"
     id="path4198"
     style="fill:#000000;fill-opacity:1" />
  <path
     fill="#221718"
     d=" M 237.48 100.73 C 240.40 100.72 243.33 100.72 246.27 100.75 C 246.36 107.08 246.11 113.42 246.36 119.75 C 246.78 124.64 254.85 123.76 254.93 119.16 C 255.09 113.03 254.96 106.88 255.00 100.74 C 257.81 100.74 260.61 100.73 263.42 100.67 C 263.65 110.21 263.63 119.77 263.44 129.31 C 260.68 129.26 257.92 129.40 255.18 129.13 C 255.06 128.64 254.84 127.67 254.73 127.18 C 251.34 130.43 246.05 130.92 241.80 129.26 C 238.54 127.97 237.53 124.16 237.48 120.98 C 237.39 114.24 237.45 107.48 237.48 100.73 Z"
     id="path4200"
     style="fill:#000000;fill-opacity:1" />
  <path
     d=" M 683.62 293.43 C 685.99 293.39 688.37 293.37 690.75 293.34 C 690.83 295.22 690.88 297.10 690.94 298.99 C 688.54 299.00 686.14 299.00 683.75 299.06 C 683.70 297.18 683.65 295.31 683.62 293.43 Z"
     id="path4216"
     fill="#221718"
     style="fill:#000000;fill-opacity:1" />
  <path
     d=" M 836.44 293.40 C 838.81 293.38 841.18 293.38 843.57 293.40 C 843.60 295.23 843.64 297.07 843.71 298.91 C 841.23 299.06 838.74 299.05 836.27 298.90 C 836.33 297.06 836.38 295.23 836.44 293.40 Z"
     id="path4218"
     fill="#221718"
     style="fill:#000000;fill-opacity:1" />
  <path
     d=" M 603.49 325.64 C 603.34 314.88 603.27 304.10 603.53 293.34 C 606.32 293.36 609.13 293.37 611.94 293.52 C 611.84 304.17 611.85 314.83 611.93 325.48 C 609.12 325.63 606.30 325.63 603.49 325.64 Z"
     id="path4220"
     fill="#221718"
     style="fill:#000000;fill-opacity:1" />
  <path
     d=" M 930.07 293.51 C 932.53 293.39 935.00 293.36 937.48 293.33 C 937.70 304.10 937.70 314.90 937.48 325.67 C 935.00 325.63 932.53 325.61 930.07 325.48 C 930.15 314.83 930.15 304.17 930.07 293.51 Z"
     id="path4222"
     fill="#221718"
     style="fill:#000000;fill-opacity:1" />
  <path
     d=" M 668.70 295.00 C 671.09 295.00 673.49 294.99 675.90 295.00 C 675.88 297.37 675.87 299.74 675.88 302.11 C 677.33 302.10 678.78 302.10 680.24 302.09 C 680.29 303.64 680.33 305.18 680.40 306.73 C 678.89 306.82 677.38 306.88 675.89 306.96 C 675.93 311.17 675.62 315.41 676.21 319.60 C 677.46 319.64 678.73 319.69 680.00 319.73 C 679.99 321.62 679.99 323.52 680.01 325.42 C 676.40 325.58 671.55 326.61 669.31 322.93 C 667.95 317.67 669.06 312.11 668.61 306.73 C 667.75 306.77 666.02 306.85 665.16 306.89 C 665.16 305.70 665.15 303.33 665.14 302.14 C 666.02 302.16 667.77 302.20 668.64 302.22 C 668.68 299.81 668.69 297.40 668.70 295.00 Z"
     id="path4224"
     fill="#221718"
     style="fill:#000000;fill-opacity:1" />
  <path
     d=" M 697.28 295.11 C 699.82 294.94 702.36 294.98 704.91 295.01 C 704.88 297.35 704.87 299.69 704.88 302.04 C 706.36 302.11 707.86 302.17 709.37 302.27 C 709.34 303.75 709.34 305.24 709.35 306.74 C 707.77 306.83 706.19 306.88 704.63 306.96 C 704.63 311.13 704.44 315.30 704.89 319.45 C 706.18 319.54 707.48 319.62 708.79 319.70 C 708.88 321.64 708.85 323.59 708.72 325.55 C 705.14 325.49 700.23 326.65 698.13 322.82 C 696.65 317.68 697.69 312.21 697.37 306.94 C 696.57 306.91 694.96 306.85 694.16 306.81 C 694.13 305.28 694.12 303.75 694.13 302.22 C 694.94 302.18 696.56 302.10 697.37 302.06 C 697.39 299.74 697.37 297.42 697.28 295.11 Z"
     id="path4226"
     fill="#221718"
     style="fill:#000000;fill-opacity:1" />
  <path
     d=" M 740.28 295.12 C 742.75 294.93 745.24 294.93 747.73 295.13 C 747.62 297.44 747.59 299.76 747.61 302.08 C 749.07 302.10 750.53 302.11 752.01 302.13 C 751.99 303.72 751.99 305.31 751.99 306.90 C 750.54 306.89 749.09 306.88 747.65 306.87 C 747.71 311.13 747.26 315.43 747.98 319.65 C 748.94 319.65 750.86 319.66 751.82 319.67 C 751.87 321.60 751.84 323.54 751.75 325.48 C 747.98 325.58 741.94 326.71 740.62 321.90 C 740.09 317.03 740.45 312.11 740.49 307.22 C 739.31 307.06 738.14 306.91 736.99 306.77 C 736.98 305.21 736.99 303.66 737.00 302.11 C 737.85 302.11 739.54 302.09 740.39 302.09 C 740.39 299.76 740.37 297.44 740.28 295.12 Z"
     id="path4228"
     fill="#221718"
     style="fill:#000000;fill-opacity:1" />
  <path
     d=" M 821.11 295.00 C 823.63 294.99 826.16 294.96 828.70 295.07 C 828.62 297.41 828.60 299.76 828.62 302.10 C 830.08 302.11 831.54 302.11 833.01 302.12 C 832.99 303.71 832.99 305.30 832.99 306.90 C 831.53 306.89 830.08 306.89 828.64 306.90 C 828.75 311.15 828.21 315.45 828.93 319.67 C 829.91 319.67 831.88 319.68 832.86 319.69 C 832.86 321.61 832.84 323.55 832.75 325.48 C 829.08 325.53 823.30 326.73 821.72 322.26 C 820.54 317.24 821.36 312.00 821.10 306.90 C 820.33 306.89 818.77 306.89 817.99 306.88 C 817.98 305.29 817.99 303.69 818.00 302.11 C 818.78 302.11 820.33 302.11 821.10 302.11 C 821.11 299.74 821.11 297.37 821.11 295.00 Z"
     id="path4230"
     fill="#221718"
     style="fill:#000000;fill-opacity:1" />
  <path
     d=" M 625.46 302.76 C 629.52 300.18 636.72 300.24 638.41 305.57 C 639.36 312.20 638.73 318.96 638.80 325.64 C 636.33 325.61 633.87 325.61 631.41 325.60 C 631.23 320.05 631.66 314.48 631.22 308.95 C 630.31 306.22 626.11 306.46 625.19 309.05 C 624.48 314.54 625.13 320.11 624.79 325.64 C 622.39 325.65 619.99 325.63 617.61 325.43 C 617.78 317.62 617.62 309.81 617.70 302.00 C 620.27 302.16 623.09 301.42 625.46 302.76 Z"
     id="path4232"
     fill="#221718"
     style="fill:#000000;fill-opacity:1" />
  <path
     d=" M 647.11 302.35 C 652.46 299.59 659.18 301.10 663.81 304.63 C 662.39 306.04 660.94 307.43 659.52 308.84 C 656.86 307.34 652.50 304.90 650.18 308.01 C 651.24 310.09 654.20 309.58 656.12 310.29 C 659.57 310.93 664.03 312.80 664.03 316.93 C 664.68 320.50 662.10 323.76 658.90 324.98 C 652.92 327.36 645.72 325.94 641.14 321.41 C 642.67 319.98 644.22 318.57 645.84 317.25 C 648.74 319.95 654.67 322.45 657.09 317.90 C 653.18 315.74 647.99 316.70 644.65 313.43 C 641.42 310.09 643.16 304.28 647.11 302.35 Z"
     id="path4234"
     fill="#221718"
     style="fill:#000000;fill-opacity:1" />
  <path
     d="M 1005.75 376.34375 C 1005.0403 376.33499 1004.3672 376.34219 1003.7188 376.375 C 998.16875 376.2875 992.7375 380.15 992.5625 386 C 995.6 386.1125 998.66875 386.14375 1001.7188 385.96875 C 1002.7812 384.39375 1003.8875 381.9875 1006.25 382.5 C 1008.9875 382.15 1009.1312 385.39375 1009.3438 387.28125 C 1004.0562 388.35625 997.91875 388.48125 993.90625 392.59375 C 990.49375 396.00625 990.85 402.125 994.375 405.3125 C 998.975 409.1125 1006.0125 407.98125 1010.375 404.34375 C 1010.325 405.00625 1010.2188 406.35 1010.1562 407 C 1013.0063 407.025 1015.8563 407.025 1018.7188 407 C 1017.5813 399.075 1018.85 391 1018 383.0625 C 1016.775 377.68125 1010.7182 376.4051 1005.75 376.34375 z M 1009.4688 393.125 C 1009.0562 396.0875 1008.275 399.725 1004.875 400.5625 C 1002.5875 402.225 999.10625 398.51875 1001.3438 396.46875 C 1003.4562 394.31875 1006.7187 394.0375 1009.4688 393.125 z "
     id="path4236"
     transform="scale(0.8,0.8)"
     style="fill:#000000;fill-opacity:1" />
  <path
     d="M 1075.0312 376.1875 C 1073.0947 376.23137 1071.1453 376.56719 1069.3125 377.125 C 1058.775 380.275 1056.6 395.3 1063.3125 403 C 1067.925 408.125 1075.7 408.4 1081.9375 406.75 C 1093.7125 402.9125 1094.6188 384.35 1084.3438 378.3125 C 1081.4922 376.79687 1078.2588 376.11438 1075.0312 376.1875 z M 1075.375 383.53125 C 1077.9367 383.48027 1080.4625 384.88125 1081.3438 387.46875 C 1083.2937 391.98125 1082.15 399.81875 1076.1875 400.28125 C 1067.7375 401.05625 1066.0438 387.38125 1072.8438 384.09375 C 1073.6437 383.74688 1074.5211 383.54824 1075.375 383.53125 z "
     id="path4238"
     transform="scale(0.8,0.8)"
     style="fill:#000000;fill-opacity:1" />
  <path
     d=" M 885.18 302.59 C 888.60 301.02 893.03 300.18 896.21 302.71 C 898.62 304.33 898.25 307.51 898.34 310.04 C 898.24 315.06 898.45 320.09 898.24 325.12 C 896.20 326.24 893.49 325.37 891.21 325.63 C 890.92 320.07 891.37 314.50 890.97 308.96 C 889.83 305.91 884.55 306.66 884.74 310.10 C 884.40 315.25 884.73 320.42 884.60 325.58 C 882.12 325.61 879.66 325.62 877.20 325.63 C 877.02 317.75 877.17 309.88 877.11 302.01 C 879.80 302.06 882.59 301.62 885.18 302.59 Z"
     id="path4240"
     fill="#221718"
     style="fill:#000000;fill-opacity:1" />
  <path
     d="M 1142.25 376.34375 C 1140.6453 376.40703 1139.0531 376.625 1137.5938 376.90625 C 1133.1688 377.69375 1130.125 381.6 1129.9375 386 C 1132.875 386.0875 1135.8 386.10625 1138.75 386.09375 C 1140.0625 384.41875 1141.2812 381.8375 1143.9062 382.5 C 1146.4687 382.675 1146.2375 385.4125 1146.5625 387.25 C 1141.65 388.3125 1136.05 388.45625 1132 391.78125 C 1127.8 395.08125 1127.7625 402.18125 1132 405.46875 C 1136.3375 409.10625 1142.8187 407.76875 1147.2188 404.90625 C 1147.6312 408.94375 1153.3 406.18125 1156 407.15625 C 1154.425 398.64375 1156.3438 389.88125 1154.8438 381.40625 C 1152.0969 377.24375 1147.0641 376.15391 1142.25 376.34375 z M 1146.5938 393.1875 C 1146.4562 396.1 1145.6313 399.6 1142.4062 400.5 C 1140.2813 401.9875 1136.55 399.1875 1138.25 396.8125 C 1140.3375 394.4625 1143.7937 394.225 1146.5938 393.1875 z "
     id="path4242"
     transform="scale(0.8,0.8)"
     style="fill:#000000;fill-opacity:1" />
  <path
     d=" M 683.69 301.71 C 686.09 301.67 688.49 301.68 690.90 301.75 C 690.89 309.66 690.83 317.58 690.93 325.49 C 688.51 325.62 686.10 325.63 683.69 325.59 C 683.67 317.63 683.68 309.67 683.69 301.71 Z"
     id="path4244"
     fill="#221718"
     style="fill:#000000;fill-opacity:1" />
  <path
     d=" M 712.11 301.73 C 714.59 301.69 717.07 301.68 719.57 301.68 C 719.73 306.93 719.46 312.19 719.68 317.44 C 719.62 321.21 726.00 320.96 726.25 317.47 C 726.61 312.22 726.22 306.95 726.44 301.70 C 728.77 301.69 731.12 301.68 733.47 301.62 C 733.73 309.63 733.68 317.66 733.48 325.67 C 730.95 325.46 728.09 326.24 725.93 324.53 C 723.71 325.36 721.48 326.40 719.04 326.05 C 715.66 326.40 712.55 323.51 712.41 320.17 C 711.81 314.04 712.25 307.88 712.11 301.73 Z"
     id="path4246"
     fill="#221718"
     style="fill:#000000;fill-opacity:1" />
  <path
     d=" M 767.28 302.11 C 769.98 302.00 772.77 301.64 775.40 302.54 C 778.42 301.35 781.91 300.29 785.00 301.91 C 787.96 302.80 788.64 306.21 788.62 308.90 C 788.63 314.46 788.61 320.03 788.60 325.59 C 786.19 325.61 783.80 325.61 781.41 325.59 C 781.20 319.72 781.80 313.80 780.96 307.96 C 779.04 306.88 776.11 306.50 775.09 308.94 C 774.56 314.49 775.12 320.08 774.77 325.65 C 772.30 325.62 769.84 325.60 767.39 325.57 C 767.32 317.75 767.52 309.93 767.28 302.11 Z"
     id="path4248"
     fill="#221718"
     style="fill:#000000;fill-opacity:1" />
  <path
     d=" M 836.54 325.67 C 836.30 317.66 836.25 309.62 836.56 301.61 C 838.79 301.96 841.63 301.02 843.54 302.22 C 843.68 310.02 843.68 317.83 843.50 325.63 C 841.17 325.61 838.85 325.61 836.54 325.67 Z"
     id="path4250"
     fill="#221718"
     style="fill:#000000;fill-opacity:1" />
  <path
     d=" M 668.62 347.56 C 671.03 347.39 673.45 347.34 675.88 347.26 C 676.17 357.86 675.91 368.48 676.00 379.10 C 673.58 379.39 671.14 379.47 668.72 379.28 C 668.59 368.71 668.79 358.13 668.62 347.56 Z"
     id="path4258"
     fill="#221718"
     style="fill:#000000;fill-opacity:1" />
  <path
     d=" M 822.26 346.85 C 825.17 346.62 828.10 346.62 831.03 346.77 C 828.88 349.04 826.64 351.29 824.00 352.95 C 822.33 353.06 820.67 353.01 819.02 353.02 C 820.16 350.99 821.27 348.95 822.26 346.85 Z"
     id="path4260"
     fill="#221718"
     style="fill:#000000;fill-opacity:1" />
  <path
     d=" M 1084.61 347.57 C 1087.05 347.37 1089.50 347.34 1091.97 347.32 C 1092.04 350.66 1091.98 353.99 1092.00 357.33 C 1094.80 355.44 1098.30 354.07 1101.65 355.47 C 1104.24 356.40 1106.21 359.09 1106.01 361.91 C 1106.01 367.65 1105.98 373.39 1106.00 379.13 C 1103.66 379.20 1101.32 379.25 1099.00 379.27 C 1098.97 374.82 1099.04 370.37 1098.97 365.92 C 1099.05 363.99 1098.08 361.42 1095.87 361.29 C 1093.81 361.03 1092.19 362.97 1092.11 364.89 C 1091.87 369.66 1092.05 374.43 1092.00 379.20 C 1089.56 379.19 1087.12 379.16 1084.70 379.12 C 1084.63 368.60 1084.77 358.08 1084.61 347.57 Z"
     id="path4262"
     fill="#221718"
     style="fill:#000000;fill-opacity:1" />
  <path
     d=" M 1291.87 346.82 C 1294.63 346.51 1297.42 346.67 1300.22 346.79 C 1298.16 348.93 1295.98 350.96 1293.64 352.75 C 1291.94 353.31 1290.08 352.88 1288.36 353.02 C 1289.38 350.89 1290.27 348.61 1291.87 346.82 Z"
     id="path4264"
     fill="#221718"
     style="fill:#000000;fill-opacity:1" />
  <path
     d="M 1651.75 434.25 C 1651.6875 438.1125 1651.6875 441.98125 1651.8125 445.84375 C 1647.6375 443.50625 1642.2125 442.6125 1638.0625 445.5 C 1632.6625 449.1875 1631.5625 456.35625 1632.1875 462.40625 C 1632.4375 466.93125 1634.925 471.51875 1639.0625 473.59375 C 1643.2625 474.31875 1647.85 474.35 1651.875 472.75 C 1654.3625 475.1125 1657.8438 474.2125 1660.8438 473.6875 C 1660.6562 460.55 1660.85 447.3875 1660.75 434.25 C 1657.75 434.225 1654.725 434.225 1651.75 434.25 z M 1646.8125 450.75 C 1648.3738 450.77063 1649.8906 451.48438 1650.75 452.9375 C 1652.55 456.9125 1652.725 461.8125 1650.5625 465.6875 C 1649.125 468.65 1644.1375 468.95 1642.75 465.8125 C 1640.4375 461.4 1640.4375 455.15 1644.0625 451.4375 C 1644.8969 450.96406 1645.8757 450.73762 1646.8125 450.75 z "
     id="path4266"
     transform="scale(0.8,0.8)"
     style="fill:#000000;fill-opacity:1" />
  <path
     d=" M 1334.44 347.40 C 1336.80 347.38 1339.18 347.38 1341.56 347.41 C 1341.59 349.24 1341.64 351.07 1341.72 352.91 C 1339.23 353.05 1336.75 353.04 1334.29 352.93 C 1334.34 351.09 1334.38 349.24 1334.44 347.40 Z"
     id="path4268"
     fill="#221718"
     style="fill:#000000;fill-opacity:1" />
  <path
     d=" M 1395.61 347.57 C 1398.03 347.38 1400.46 347.33 1402.91 347.28 C 1403.12 357.91 1402.93 368.55 1403.00 379.18 C 1400.56 379.33 1398.11 379.30 1395.70 379.12 C 1395.62 368.60 1395.78 358.08 1395.61 347.57 Z"
     id="path4270"
     style="fill:#000000;fill-opacity:1"
     fill="#221718" />
  <path
     d="M 776.625 434.25 C 775.12031 434.2375 773.625 434.25 772.125 434.28125 C 772.1 438.18125 772.0875 442.0875 772.1875 446 C 769.95 444.875 767.65 443.5125 765.0625 443.6875 C 759.125 443.2375 754.10625 448.30625 752.96875 453.84375 C 751.55625 460.64375 752.2625 469.43125 758.875 473.34375 C 763.15 474.60625 767.725 473.8875 772.0625 473.25 C 775.025 473.9625 778.04375 474.31875 781.09375 473.90625 C 781.11875 460.71875 781.025 447.55 781.125 434.375 C 779.61875 434.30625 778.12969 434.2625 776.625 434.25 z M 766.8125 450.6875 C 769.46035 450.60371 771.94687 453.17813 772.125 456 C 773.525 460.6625 771.70625 469.625 765.15625 467.75 C 760.35625 464.3875 760.55 455.9875 764.1875 451.75 C 765.01875 451.04375 765.92988 450.71543 766.8125 450.6875 z "
     id="path4272"
     transform="scale(0.8,0.8)"
     style="fill:#000000;fill-opacity:1" />
  <path
     d="M 1156.8438 434.15625 C 1153.8937 434.23125 1150.9563 434.24375 1148.0312 434.28125 C 1147.9562 438.18125 1147.9313 442.0875 1148.0938 446 C 1143.9062 443.6125 1138.3938 442.5125 1134.2188 445.5 C 1128.2812 449.375 1127.7562 457.3125 1128.5312 463.6875 C 1129.1187 468.7625 1133.1188 474.55 1138.7812 474 C 1141.9813 473.725 1146 474.8 1148.25 471.875 C 1149.3125 475.6375 1154.2625 473.925 1157.125 473.6875 C 1156.7875 460.5125 1157.3187 447.33125 1156.8438 434.15625 z M 1142.625 450.6875 C 1144.9758 450.57559 1147.275 452.425 1147.5938 454.9375 C 1148.2188 459.05 1148.9188 464.68125 1144.9688 467.40625 C 1142.3438 469.11875 1138.9125 467.2875 1138.1875 464.4375 C 1136.9125 460.225 1136.7 454.6625 1140.3125 451.5 C 1141.0312 450.97812 1141.8414 450.7248 1142.625 450.6875 z "
     id="path4274"
     transform="scale(0.8,0.8)"
     style="fill:#000000;fill-opacity:1" />
  <path
     d=" M 969.34 378.93 C 969.52 368.40 969.18 357.87 969.52 347.35 C 971.83 347.38 974.14 347.38 976.47 347.34 C 976.75 357.77 976.61 368.22 976.56 378.65 C 974.64 380.22 971.64 378.96 969.34 378.93 Z"
     id="path4276"
     fill="#221718"
     style="fill:#000000;fill-opacity:1" />
  <path
     d=" M 1176.00 347.40 C 1178.43 347.38 1180.86 347.38 1183.30 347.42 C 1183.31 350.83 1183.33 354.24 1183.28 357.65 C 1186.91 353.74 1194.54 353.90 1196.82 359.16 C 1197.91 365.75 1197.06 372.51 1197.29 379.17 C 1194.91 379.28 1192.53 379.31 1190.17 379.27 C 1189.99 374.51 1190.27 369.75 1190.06 364.99 C 1190.30 362.62 1187.69 360.28 1185.44 361.62 C 1183.65 362.21 1183.40 364.35 1183.34 365.95 C 1183.22 370.38 1183.38 374.80 1183.28 379.23 C 1180.84 379.32 1178.42 379.35 1176.00 379.29 C 1175.99 368.66 1176.00 358.03 1176.00 347.40 Z"
     id="path4278"
     fill="#221718"
     style="fill:#000000;fill-opacity:1" />
  <path
     d=" M 797.00 349.00 C 799.42 349.00 801.84 348.99 804.27 348.95 C 804.32 351.33 804.31 353.71 804.36 356.10 C 805.86 356.12 807.36 356.15 808.87 356.18 C 808.85 357.72 808.84 359.25 808.83 360.80 C 807.29 360.87 805.77 360.95 804.26 361.06 C 804.34 365.04 804.33 369.02 804.28 373.00 C 805.70 373.20 807.13 373.36 808.58 373.54 C 808.60 375.33 808.63 377.11 808.69 378.91 C 804.92 378.91 799.05 380.73 797.43 376.00 C 796.50 370.88 797.33 365.61 796.82 360.44 C 796.05 360.49 794.50 360.60 793.73 360.65 C 793.71 359.52 793.68 357.27 793.67 356.14 C 794.46 356.17 796.03 356.24 796.82 356.27 C 796.99 353.85 797.01 351.42 797.00 349.00 Z"
     id="path4280"
     fill="#221718"
     style="fill:#000000;fill-opacity:1" />
  <path
     d=" M 877.13 348.99 C 879.55 348.98 881.98 348.96 884.42 349.09 C 884.31 351.43 884.29 353.77 884.35 356.12 C 885.84 356.12 887.34 356.14 888.85 356.16 C 888.85 357.69 888.85 359.23 888.86 360.77 C 887.31 360.86 885.77 360.96 884.25 361.08 C 884.34 365.06 884.32 369.04 884.29 373.03 C 885.70 373.21 887.13 373.37 888.57 373.53 C 888.60 375.32 888.64 377.11 888.70 378.90 C 884.96 378.82 879.05 380.76 877.47 376.03 C 876.57 370.91 877.60 365.64 876.84 360.48 C 876.06 360.51 874.49 360.58 873.71 360.61 C 873.70 359.50 873.68 357.27 873.67 356.16 C 874.46 356.18 876.03 356.22 876.82 356.24 C 877.13 353.83 877.17 351.41 877.13 348.99 Z"
     id="path4282"
     fill="#221718"
     style="fill:#000000;fill-opacity:1" />
  <path
     d="M 801.71875 443.59375 C 799.5866 443.58079 797.44688 443.91719 795.46875 444.4375 C 786.99375 447.3 784.675 457.95625 786.9375 465.71875 C 788.325 469.74375 791.6625 474.21875 796.375 473.96875 C 800.4375 474.00625 804.53125 474.11875 808.59375 473.65625 C 811.80625 472.28125 813.9 469.3125 816.1875 466.8125 C 813.9875 465.3 811.61875 464.05625 809.21875 462.90625 C 807.41875 465.68125 804.9125 468.66875 801.1875 468.03125 C 797.375 468.09375 796.0125 464.3625 794.9375 461.4375 C 802.075 461.0875 809.2375 461.3125 816.375 461.25 C 816.15 456.2125 815.35 450.65 811.4375 447.0625 C 808.78906 444.57813 805.27234 443.61536 801.71875 443.59375 z M 801.1875 450.125 C 801.81823 450.10178 802.47812 450.20391 803.125 450.46875 C 805.4375 451.05625 806.24375 453.40625 806.96875 455.40625 C 803.14375 455.51875 799.3125 455.5125 795.5 455.4375 C 796.04844 452.76641 798.45436 450.22561 801.1875 450.125 z "
     id="path4284"
     transform="scale(0.8,0.8)"
     style="fill:#000000;fill-opacity:1" />
  <path
     d="M 865.6875 443.6875 C 864.08281 443.64375 862.50937 443.725 861.09375 443.875 C 856.08125 444.2 852.0875 448.175 851.75 453.1875 C 854.6875 453.2625 857.675 453.275 860.625 453.3125 C 861.875 450.425 864.575 449.50625 867.5625 449.90625 C 867.925 451.41875 868.2875 452.93125 868.625 454.46875 C 862.9125 455.79375 855.73125 455.84375 852.09375 461.21875 C 849.08125 465.70625 851.4875 474.26875 857.6875 473.96875 C 861.675 473.91875 866.26875 474.65 869.46875 471.6875 C 869.39375 472.25 869.25 473.40625 869.1875 473.96875 C 872.0375 474.08125 874.925 474.10625 877.8125 474.03125 C 876.7625 466.06875 877.7875 458.0375 877.1875 450.0625 C 875.56562 445.20625 870.50156 443.81875 865.6875 443.6875 z M 868.5625 460.4375 C 869.0625 464.75 864.7375 470.0875 860.3125 467.1875 C 858.1375 462.2125 865.575 461.6125 868.5625 460.4375 z "
     id="path4286"
     transform="scale(0.8,0.8)"
     style="fill:#000000;fill-opacity:1" />
  <path
     d=" M 723.94 355.51 C 729.17 353.93 734.76 355.33 739.26 358.24 C 737.88 359.78 736.38 361.22 734.89 362.65 C 732.18 361.22 728.95 359.32 725.92 361.02 C 725.98 361.48 726.10 362.40 726.15 362.85 C 730.23 364.35 735.36 363.93 738.36 367.61 C 741.57 371.92 738.11 378.71 732.89 379.03 C 729.30 379.13 725.69 379.28 722.12 378.90 C 720.10 378.15 718.40 376.78 716.62 375.61 C 717.93 373.92 719.50 372.45 721.11 371.04 C 723.41 372.74 725.96 374.68 729.04 374.14 C 730.54 374.32 732.98 372.95 731.67 371.21 C 727.62 369.68 722.33 370.38 719.43 366.60 C 716.71 362.50 719.45 356.84 723.94 355.51 Z"
     id="path4288"
     fill="#221718"
     style="fill:#000000;fill-opacity:1" />
  <path
     d="M 941.59375 443.65625 C 939.54619 443.68152 937.49844 443.95625 935.5625 444.40625 C 931.4875 445.39375 928.70625 449.075 928.78125 453.25 C 931.75625 453.275 934.73125 453.26875 937.71875 453.15625 C 938.70625 451.26875 940.0625 449.2625 942.5625 449.875 C 945.1875 449.775 945.025 452.8 945.1875 454.625 C 941.275 455.2875 937.28125 455.79375 933.59375 457.28125 C 930.10625 458.74375 927.15 462.3 927.625 466.25 C 927.6875 469.675 929.9625 474.075 933.875 473.875 C 937.825 473.825 942.60625 475.03125 945.71875 471.90625 C 946.83125 475.68125 951.6875 473.90625 954.5625 474.09375 C 953.725 466.93125 954.325 459.6875 954.125 452.5 C 954.2 450.0875 953.425 447.4875 951.3125 446.125 C 948.42969 444.28906 945.00635 443.61414 941.59375 443.65625 z M 945.4375 460.53125 C 945.1125 463.38125 944.39375 466.84375 941.15625 467.71875 C 938.91875 468.96875 935.6375 466.79375 936.8125 464.21875 C 938.975 461.76875 942.4875 461.48125 945.4375 460.53125 z "
     id="path4290"
     transform="scale(0.8,0.8)"
     style="fill:#000000;fill-opacity:1" />
  <path
     d=" M 777.05 356.55 C 781.10 354.33 788.04 353.88 789.96 359.05 C 790.78 365.68 790.09 372.45 790.31 379.14 C 787.92 379.26 785.54 379.28 783.17 379.22 C 782.94 373.84 783.37 368.44 782.98 363.07 C 782.47 359.89 776.92 360.32 776.81 363.54 C 776.30 368.74 776.81 373.98 776.55 379.20 C 774.17 379.25 771.80 379.25 769.43 379.20 C 769.34 371.37 769.38 363.53 769.41 355.70 C 771.96 355.76 774.71 355.22 777.05 356.55 Z"
     id="path4292"
     fill="#221718"
     style="fill:#000000;fill-opacity:1" />
  <path
     d="M 1027.25 443.625 C 1025.8461 443.6918 1024.4531 443.8875 1023.125 444.15625 C 1010.925 447.73125 1009.2188 467.575 1020.2188 473.5625 C 1025.0687 474.4 1030.0875 473.8375 1035 473.6875 C 1038.5625 472.75 1040.625 469.38125 1043 466.84375 C 1040.9 465.24375 1038.55 464.05 1036.1875 462.9375 C 1034.275 465.85 1031.3937 468.85 1027.5312 467.9375 C 1023.9937 467.7875 1022.7375 464.13125 1022.0625 461.28125 C 1029.1375 461.20625 1036.1938 461.2625 1043.2812 461.25 C 1042.7938 456.4375 1042.4313 451.1125 1038.7812 447.5 C 1035.7719 444.35 1031.4617 443.42461 1027.25 443.625 z M 1028.0625 450.09375 C 1028.6908 450.07853 1029.3609 450.19766 1030.0312 450.5 C 1032.3312 451.05 1033.05 453.50625 1034.0625 455.34375 C 1030.075 455.56875 1026.1 455.55 1022.125 455.3125 C 1023.1102 452.86484 1025.3398 450.15969 1028.0625 450.09375 z "
     id="path4294"
     transform="scale(0.8,0.8)"
     style="fill:#000000;fill-opacity:1" />
  <path
     d="M 1076.9375 443.625 C 1075.024 443.57285 1073.0687 443.78281 1071.25 444.03125 C 1060.1875 446.84375 1057.5438 462.7625 1064.4062 470.75 C 1068.0687 475.6625 1074.8 473.4125 1080 473.9375 C 1084.875 474.3875 1088.4875 470.1625 1090.5625 466.25 C 1087.95 465.475 1084.4938 461.3125 1082.4062 464.8125 C 1080.4188 467.975 1076.0688 468.91875 1072.8438 467.15625 C 1070.8438 465.83125 1070.275 463.4125 1069.75 461.25 C 1076.7875 461.2125 1083.8063 461.25 1090.8438 461.25 C 1090.7063 456.075 1089.9125 450.25625 1085.625 446.78125 C 1083.2422 444.49219 1080.1266 443.71191 1076.9375 443.625 z M 1075.4688 450.125 C 1076.3512 450.04297 1077.2812 450.21562 1078.1562 450.6875 C 1080.2937 451.2875 1080.7 453.6875 1081.6875 455.375 C 1077.825 455.525 1073.975 455.50625 1070.125 455.53125 C 1070.4625 452.80312 1072.8215 450.37109 1075.4688 450.125 z "
     id="path4296"
     transform="scale(0.8,0.8)"
     style="fill:#000000;fill-opacity:1" />
  <path
     d="M 1177.6875 443.625 C 1175.6564 443.60471 1173.6125 443.86094 1171.7188 444.25 C 1163.7188 446.625 1160.6625 456.25 1162.25 463.75 C 1163.0375 468.7125 1166.9125 474.34375 1172.5 473.96875 C 1176.55 473.91875 1180.6625 474.10625 1184.6875 473.53125 C 1187.8625 472.03125 1190.1375 469.25625 1191.875 466.28125 C 1189.575 465.04375 1187.2 463.93125 1184.8125 462.96875 C 1183.3 465.71875 1180.95 468.38125 1177.5 468.03125 C 1173.6625 468.28125 1171.3375 464.66875 1171 461.28125 C 1178.025 461.23125 1185.0563 461.24375 1192.0938 461.28125 C 1191.9313 456.14375 1191.0938 450.3625 1186.9062 446.875 C 1184.4141 444.46875 1181.0726 443.65881 1177.6875 443.625 z M 1176.7188 450.09375 C 1177.602 450.02168 1178.5312 450.22188 1179.4062 450.75 C 1181.4312 451.4 1182.0125 453.65625 1182.9375 455.34375 C 1179.025 455.51875 1175.0875 455.5125 1171.1875 455.5 C 1171.675 452.85625 1174.0691 450.30996 1176.7188 450.09375 z "
     id="path4298"
     transform="scale(0.8,0.8)"
     style="fill:#000000;fill-opacity:1" />
  <path
     d="M 1240.75 443.6875 C 1239.1295 443.70195 1237.5375 443.83125 1236.0938 444.03125 C 1231.3937 444.61875 1227.6937 448.50625 1227.5938 453.28125 C 1230.5938 453.29375 1233.6 453.275 1236.625 453.1875 C 1237.8125 450.2375 1240.475 449.5125 1243.4375 450.0625 C 1243.7125 451.1375 1244.2563 453.3 1244.5312 454.375 C 1240.1188 455.4375 1235.4125 455.7375 1231.375 457.9375 C 1227.8125 459.8625 1225.425 464.3125 1226.875 468.3125 C 1227.7125 470.875 1229.4937 474.13125 1232.6562 473.84375 C 1236.8312 473.91875 1241.675 474.8625 1245.125 471.875 C 1245.2625 475.8625 1250.975 473.625 1253.6875 474.0625 C 1252.55 465.9125 1254.0625 457.6 1252.8125 449.5 C 1250.7406 444.79375 1245.6115 443.64414 1240.75 443.6875 z M 1244.4688 460.4375 C 1244.6812 464.6 1240.875 469.86875 1236.375 467.40625 C 1233.2625 462.44375 1241.4313 461.55 1244.4688 460.4375 z "
     id="path4300"
     transform="scale(0.8,0.8)"
     style="fill:#000000;fill-opacity:1" />
  <path
     d="M 1309.625 443.46875 C 1304.1187 443.50625 1298.6125 446.14375 1296.375 451.3125 C 1293.0625 458.5625 1293.9375 468.96875 1301.375 473.34375 C 1305.4 474.14375 1309.625 473.81875 1313.75 474.03125 C 1318.7375 474.50625 1322.0625 470.04375 1324.5625 466.40625 C 1322.275 465.21875 1319.9562 464.0625 1317.6562 462.9375 C 1315.9063 465.5375 1313.5812 468.49375 1310.0312 468.03125 C 1306.1187 468.31875 1304.1625 464.51875 1303.5 461.28125 C 1310.6375 461.23125 1317.7562 461.2375 1324.9062 461.25 C 1324.4437 457.875 1324.3063 454.375 1322.8438 451.25 C 1320.6188 446.01875 1315.1313 443.43125 1309.625 443.46875 z M 1309.9688 450.125 C 1310.6282 450.14082 1311.3055 450.2875 1311.9688 450.625 C 1314.0563 451.3125 1314.6625 453.575 1315.4375 455.375 C 1311.6 455.5125 1307.7812 455.5 1303.9688 455.5 C 1304.5172 452.69687 1307.1113 450.05645 1309.9688 450.125 z "
     id="path4302"
     transform="scale(0.8,0.8)"
     style="fill:#000000;fill-opacity:1" />
  <path
     d=" M 1068.05 356.10 C 1073.62 353.45 1081.00 355.25 1084.05 360.82 C 1082.23 361.86 1080.42 362.88 1078.59 363.89 C 1077.42 362.36 1076.08 360.67 1073.98 360.57 C 1067.87 361.50 1067.59 372.05 1073.06 374.07 C 1075.70 374.85 1077.65 372.73 1079.00 370.79 C 1080.81 371.75 1082.63 372.72 1084.39 373.82 C 1082.30 375.97 1080.38 379.42 1076.93 379.07 C 1072.98 378.77 1068.10 380.32 1065.13 376.91 C 1059.66 371.20 1060.64 359.76 1068.05 356.10 Z"
     id="path4304"
     fill="#221718"
     style="fill:#000000;fill-opacity:1" />
  <path
     d="M 1402.6875 443.5 C 1399.5068 443.5342 1396.3531 444.40781 1393.8125 446.0625 C 1385.2625 452.5 1385.2375 468.40625 1395.0625 473.65625 C 1400.0125 474.00625 1404.9938 473.95 1409.9688 473.6875 C 1413.3438 472.3 1415.6062 469.30625 1417.7188 466.46875 C 1415.4437 465.29375 1413.1625 464.1375 1410.9375 462.9375 C 1408.9375 465.6625 1406.3 468.8 1402.5 468 C 1398.875 467.925 1397.2063 464.3375 1396.8438 461.25 C 1403.8312 461.225 1410.8313 461.25 1417.8438 461.25 C 1417.4563 457.675 1417.55 453.8875 1415.6875 450.6875 C 1413.3203 445.75 1407.9886 443.44299 1402.6875 443.5 z M 1402.5 450.15625 C 1403.367 450.07461 1404.2844 450.24375 1405.1562 450.71875 C 1407.3938 451.23125 1407.6625 453.65625 1408.375 455.46875 C 1404.575 455.49375 1400.7875 455.5 1397 455.375 C 1397.5813 452.80625 1399.899 450.40117 1402.5 450.15625 z "
     id="path4306"
     transform="scale(0.8,0.8)"
     style="fill:#000000;fill-opacity:1" />
  <path
     d=" M 1156.40 358.15 C 1161.67 352.95 1171.82 354.09 1175.24 360.89 C 1173.49 361.87 1171.79 362.94 1169.99 363.77 C 1168.28 361.96 1165.87 359.44 1163.22 361.20 C 1159.55 364.04 1159.54 370.86 1163.29 373.66 C 1165.95 375.18 1168.89 373.32 1170.04 370.81 C 1171.80 371.67 1173.57 372.52 1175.37 373.34 C 1174.66 374.86 1173.75 376.31 1172.42 377.36 C 1169.71 380.13 1165.50 378.85 1162.06 379.11 C 1158.01 379.56 1154.74 376.05 1153.66 372.45 C 1152.22 367.66 1152.83 361.89 1156.40 358.15 Z"
     id="path4308"
     fill="#221718"
     style="fill:#000000;fill-opacity:1" />
  <path
     d="M 1515.9375 443.53125 C 1513.1788 443.67784 1510.4641 444.475 1508.1562 445.875 C 1499.3563 452.125 1499.1937 468.24375 1509.0312 473.59375 C 1513.8813 474.24375 1518.8375 473.875 1523.75 473.75 C 1527.2125 472.6125 1529.4 469.4625 1531.75 466.875 C 1529.6625 465.25 1527.2687 464.05 1524.9062 462.9375 C 1523.0062 465.8 1520.2 468.81875 1516.375 467.96875 C 1512.85 467.84375 1511.3375 464.23125 1510.8125 461.28125 C 1517.8625 461.21875 1524.9063 461.25625 1531.9688 461.28125 C 1531.6438 455.83125 1530.7625 449.625 1526 446.1875 C 1523.0961 444.23281 1519.4844 443.34278 1515.9375 443.53125 z M 1516.6562 450.09375 C 1519.7197 449.97487 1522.0859 452.59766 1522.5312 455.5625 C 1518.8812 455.475 1515.25 455.5625 1511.625 455.5 C 1510.875 452.825 1513.875 450.91875 1516.0625 450.15625 C 1516.2727 450.12344 1516.452 450.10168 1516.6562 450.09375 z "
     id="path4310"
     transform="scale(0.8,0.8)"
     style="fill:#000000;fill-opacity:1" />
  <path
     d=" M 1248.39 357.67 C 1251.64 353.98 1257.64 354.22 1261.24 357.28 C 1264.72 354.83 1269.95 353.78 1273.48 356.71 C 1275.45 358.14 1275.37 360.84 1275.59 363.03 C 1275.66 368.41 1275.60 373.78 1275.59 379.16 C 1273.12 379.21 1270.67 379.24 1268.23 379.24 C 1267.79 373.63 1268.57 367.96 1267.85 362.38 C 1266.24 359.88 1262.13 361.03 1262.00 363.94 C 1261.64 369.05 1262.06 374.18 1261.80 379.30 C 1259.42 379.34 1257.06 379.33 1254.71 379.25 C 1254.51 373.82 1255.02 368.36 1254.44 362.96 C 1253.54 360.09 1248.93 360.50 1248.53 363.52 C 1247.99 368.70 1248.48 373.95 1248.30 379.16 C 1245.89 379.32 1243.49 379.29 1241.11 379.09 C 1241.12 371.30 1241.13 363.52 1241.10 355.74 C 1243.48 355.68 1245.86 355.67 1248.26 355.73 C 1248.29 356.21 1248.36 357.18 1248.39 357.67 Z"
     id="path4312"
     fill="#221718"
     style="fill:#000000;fill-opacity:1" />
  <path
     d="M 1615 443.46875 C 1609.3687 443.37442 1603.6207 446.05312 1601.25 451.3125 C 1598.05 458.5875 1598.7438 469.0125 1606.3438 473.3125 C 1610.3438 474.3125 1614.5938 473.81875 1618.7188 473.90625 C 1623.6437 474.40625 1627.1312 470.125 1629.4062 466.3125 C 1627.1312 465.125 1624.8625 463.9875 1622.5625 462.9375 C 1620.875 466.075 1617.7 468.8875 1613.875 467.9375 C 1610.3875 467.7375 1609.2125 464.09375 1608.5 461.28125 C 1615.525 461.23125 1622.5437 461.2375 1629.5938 461.25 C 1629.4688 457.5 1629.1688 453.5625 1627.2812 450.25 C 1624.8496 445.77344 1619.9688 443.55198 1615 443.46875 z M 1614.9375 450.09375 C 1615.6033 450.12762 1616.2695 450.31484 1616.9375 450.6875 C 1619.0375 451.275 1619.5125 453.675 1620.4375 455.375 C 1616.5375 455.5375 1612.6438 455.5125 1608.7812 455.5 C 1609.3805 452.67656 1612.0525 449.947 1614.9375 450.09375 z "
     id="path4314"
     transform="scale(0.8,0.8)"
     style="fill:#000000;fill-opacity:1" />
  <path
     d=" M 1354.25 355.31 C 1359.45 353.90 1365.25 356.08 1368.05 360.74 C 1366.25 361.79 1364.44 362.83 1362.66 363.89 C 1361.18 361.58 1357.97 359.24 1355.44 361.55 C 1352.27 364.77 1352.32 370.93 1356.05 373.73 C 1358.62 375.07 1361.54 373.46 1362.51 370.91 C 1364.56 371.57 1366.47 372.58 1368.33 373.69 C 1366.36 375.98 1364.37 379.44 1360.87 379.07 C 1357.14 378.88 1352.66 380.23 1349.66 377.39 C 1342.84 371.46 1344.83 357.42 1354.25 355.31 Z"
     id="path4316"
     fill="#221718"
     style="fill:#000000;fill-opacity:1" />
  <path
     d="M 1724.9062 443.625 C 1722.3391 443.59688 1719.7687 444.0125 1717.4062 444.90625 C 1713.8438 446.10625 1712.0125 449.6875 1711.75 453.25 C 1714.7375 453.3 1717.7375 453.3 1720.75 453.0625 C 1721.775 450 1724.6875 449.69375 1727.5 450.03125 C 1727.8625 451.50625 1728.1875 453 1728.5625 454.5 C 1723.6625 455.5625 1718.2875 455.775 1714.125 458.8125 C 1709.2875 462.2625 1709.6625 470.96875 1715.0625 473.65625 C 1719.8875 473.79375 1725.4937 475.13125 1729.5312 471.71875 C 1729.4312 472.26875 1729.275 473.35625 1729.1875 473.90625 C 1731.9875 474.13125 1734.8063 474.2 1737.6562 474.125 C 1736.9812 466.4625 1737.6437 458.7875 1737.2188 451.125 C 1737.0313 448.325 1734.9437 446.0125 1732.4062 445.0625 C 1730.05 444.13125 1727.4734 443.65312 1724.9062 443.625 z M 1728.5625 460.4375 C 1728.7125 465.1875 1724.85 469.53125 1719.9375 467.53125 C 1718.475 462.09375 1725.025 461.7375 1728.5625 460.4375 z "
     id="path4318"
     transform="scale(0.8,0.8)"
     style="fill:#000000;fill-opacity:1" />
  <path
     d="M 1773.1562 443.5625 C 1768.6748 443.73132 1764.3047 445.52344 1761.7812 449.40625 C 1757.4188 456.21875 1757.475 466.7625 1764.0625 472.1875 C 1767.7125 475.4125 1772.9813 474.4875 1777.4688 474.5 C 1782.5187 474.475 1786.3375 470.4875 1788.75 466.4375 C 1786.5375 465.225 1784.325 464.0375 1782.125 462.875 C 1780.1625 465.6125 1777.5625 468.8125 1773.75 468 C 1770.05 467.9625 1768.65 464.2875 1767.875 461.3125 C 1774.825 461.2125 1781.7875 461.275 1788.75 461.25 L 1788.75 456.5 C 1787.9 451.8 1785.6562 446.8375 1780.9688 444.9375 C 1778.5734 443.95312 1775.8451 443.46121 1773.1562 443.5625 z M 1773.8125 450.125 C 1774.6846 450.0666 1775.5687 450.26875 1776.4375 450.8125 C 1778.6 451.375 1778.8437 453.7375 1779.7188 455.4375 C 1775.8563 455.5 1772.0125 455.525 1768.1875 455.375 C 1768.8156 452.79688 1771.1963 450.3002 1773.8125 450.125 z "
     id="path4320"
     transform="scale(0.8,0.8)"
     style="fill:#000000;fill-opacity:1" />
  <path
     d=" M 1020.43 355.69 C 1022.79 356.10 1026.66 354.30 1027.41 357.59 C 1029.50 356.26 1031.83 355.44 1034.33 355.30 C 1034.30 357.44 1034.30 359.59 1034.28 361.74 C 1032.17 362.44 1028.50 361.85 1027.90 364.63 C 1027.26 369.47 1027.80 374.37 1027.56 379.23 C 1025.17 379.27 1022.79 379.25 1020.41 379.17 C 1020.38 371.34 1020.34 363.52 1020.43 355.69 Z"
     id="path4322"
     fill="#221718"
     style="fill:#000000;fill-opacity:1" />
  <path
     d=" M 1137.69 355.71 C 1140.07 355.69 1142.46 355.68 1144.86 355.70 C 1144.83 356.17 1144.78 357.09 1144.75 357.56 C 1146.83 356.26 1149.16 355.52 1151.62 355.28 C 1151.61 357.45 1151.59 359.64 1151.52 361.81 C 1149.34 362.19 1146.79 362.20 1145.21 363.98 C 1144.75 369.04 1145.10 374.15 1145.01 379.23 C 1142.57 379.45 1140.13 379.42 1137.72 379.17 C 1137.65 371.35 1137.69 363.53 1137.69 355.71 Z"
     id="path4324"
     fill="#221718"
     style="fill:#000000;fill-opacity:1" />
  <path
     d=" M 1334.30 378.86 C 1334.56 371.11 1334.16 363.35 1334.53 355.60 C 1336.90 355.64 1339.30 355.69 1341.69 355.90 C 1341.55 363.57 1341.57 371.25 1341.68 378.92 C 1339.23 379.55 1336.73 379.42 1334.30 378.86 Z"
     id="path4326"
     fill="#221718"
     style="fill:#000000;fill-opacity:1" />
  <rect
     style="color:#000000;fill:#f46e17;fill-opacity:1;fill-rule:evenodd;stroke:none;stroke-width:1;marker:none;visibility:visible;display:inline;overflow:visible;enable-background:accumulate"
     id="rect3074"
     width="18.895559"
     height="78.412903"
     x="491.53723"
     y="51.03569" />
  <rect
     y="8.0019035"
     x="457.76208"
     height="78.412903"
     width="18.895559"
     id="rect3846"
     style="color:#000000;fill:#019cd3;fill-opacity:1;fill-rule:evenodd;stroke:none;stroke-width:1;marker:none;visibility:visible;display:inline;overflow:visible;enable-background:accumulate" />
  <rect
     style="color:#000000;fill:#7f2781;fill-opacity:1;fill-rule:evenodd;stroke:none;stroke-width:1;marker:none;visibility:visible;display:inline;overflow:visible;enable-background:accumulate"
     id="rect3848"
     width="18.895559"
     height="78.412903"
     x="457.96713"
     y="93.791054" />
  <rect
     y="0.0505867"
     x="424.16605"
     height="78.412903"
     width="18.895559"
     id="rect3850"
     style="color:#000000;fill:#ec3e19;fill-opacity:1;fill-rule:evenodd;stroke:none;stroke-width:1;marker:none;visibility:visible;display:inline;overflow:visible;enable-background:accumulate" />
  <rect
     style="color:#000000;fill:#9faa2c;fill-opacity:1;fill-rule:evenodd;stroke:none;stroke-width:1;marker:none;visibility:visible;display:inline;overflow:visible;enable-background:accumulate"
     id="rect3852"
     width="18.895559"
     height="78.412903"
     x="424.16849"
     y="101.83244" />
  <rect
     y="8.0191116"
     x="390.54721"
     height="78.412903"
     width="18.895559"
     id="rect3854"
     style="color:#000000;fill:#024788;fill-opacity:1;fill-rule:evenodd;stroke:none;stroke-width:1;marker:none;visibility:visible;display:inline;overflow:visible;enable-background:accumulate" />
  <rect
     style="color:#000000;fill:#fea80e;fill-opacity:1;fill-rule:evenodd;stroke:none;stroke-width:1;marker:none;visibility:visible;display:inline;overflow:visible;enable-background:accumulate"
     id="rect3856"
     width="18.895559"
     height="78.412903"
     x="390.56223"
     y="93.793228" />
  <rect
     y="50.865395"
     x="356.95779"
     height="78.412903"
     width="18.895559"
     id="rect3858"
     style="color:#000000;fill:#ec3e19;fill-opacity:1;fill-rule:evenodd;stroke:none;stroke-width:1;marker:none;visibility:visible;display:inline;overflow:visible;enable-background:accumulate" />
  <path
     sodipodi:type="arc"
     style="color:#000000;fill:#ec3e1b;fill-opacity:1;fill-rule:evenodd;stroke:none;stroke-width:1;marker:none;visibility:visible;display:inline;overflow:visible;enable-background:accumulate"
     id="path3860"
     sodipodi:cx="723.90424"
     sodipodi:cy="284.13525"
     sodipodi:rx="34.027473"
     sodipodi:ry="34.027473"
     d="m 757.93171,284.13525 a 34.027473,34.027473 0 1 1 -68.05495,0 34.027473,34.027473 0 1 1 68.05495,0 z"
     transform="matrix(0.76751269,0,0,0.76751269,67.387744,-8.6460793)" />
</svg>
