<?xml version="1.0" encoding="UTF-8" standalone="no"?>
<!-- Created with Inkscape (http://www.inkscape.org/) -->

<svg
   xmlns:dc="http://purl.org/dc/elements/1.1/"
   xmlns:cc="http://creativecommons.org/ns#"
   xmlns:rdf="http://www.w3.org/1999/02/22-rdf-syntax-ns#"
   xmlns:svg="http://www.w3.org/2000/svg"
   xmlns="http://www.w3.org/2000/svg"
   xmlns:sodipodi="http://sodipodi.sourceforge.net/DTD/sodipodi-0.dtd"
   xmlns:inkscape="http://www.inkscape.org/namespaces/inkscape"
   id="svg3127"
   version="1.1"
   inkscape:version="0.48.0 r9654"
   width="718.61926"
   height="800.36365"
   xml:space="preserve"
   sodipodi:docname="logoLTSI.svg"><metadata
     id="metadata3133"><rdf:RDF><cc:Work
         rdf:about=""><dc:format>image/svg+xml</dc:format><dc:type
           rdf:resource="http://purl.org/dc/dcmitype/StillImage" /><dc:title></dc:title></cc:Work></rdf:RDF></metadata><defs
     id="defs3131"><clipPath
       clipPathUnits="userSpaceOnUse"
       id="clipPath3141"><path
         d="M 0,640 640,640 640,0 0,0 0,640 z"
         id="path3143"
         inkscape:connector-curvature="0" /></clipPath></defs><sodipodi:namedview
     pagecolor="#ffffff"
     bordercolor="#666666"
     borderopacity="1"
     objecttolerance="10"
     gridtolerance="10"
     guidetolerance="10"
     inkscape:pageopacity="0"
     inkscape:pageshadow="2"
     inkscape:window-width="1330"
     inkscape:window-height="844"
     id="namedview3129"
     showgrid="false"
     inkscape:zoom="0.36625"
     inkscape:cx="-228.03365"
     inkscape:cy="398.68151"
     inkscape:window-x="1352"
     inkscape:window-y="22"
     inkscape:window-maximized="0"
     inkscape:current-layer="g3137"
     fit-margin-top="5"
     fit-margin-left="5"
     fit-margin-right="2"
     fit-margin-bottom="2" /><g
     id="g3135"
     inkscape:groupmode="layer"
     inkscape:label="logoLTSI"
     transform="matrix(1.25,0,0,-1.25,-36.907375,801.68212)"><g
       id="g3137"><g
   id="g3139"
   clip-path="url(#clipPath3141)"><g
     id="g3145"
     transform="translate(35.0259,509.2173)"
     style="fill:#ffffff;fill-opacity:1"><path
       d="m 0,0 271.084,125.783 0,-630 L 0,-379.518 0,0 z"
       style="fill:#ffffff;fill-opacity:1;stroke:#231f20;stroke-width:3;stroke-linecap:butt;stroke-linejoin:miter;stroke-miterlimit:4;stroke-opacity:1;stroke-dasharray:none"
       id="path3147"
       inkscape:connector-curvature="0" /></g><g
     id="g3149"
     transform="translate(306.1113,551.2559)"><path
       d="m 0,0 c -121.926,-5.663 -219.037,-106.305 -219.037,-229.628 0,-123.327 97.109,-223.969 219.035,-229.63 L 0,0 z"
       style="fill:#3366ff;fill-opacity:1;fill-rule:nonzero;stroke:none"
       id="path3151"
       inkscape:connector-curvature="0" /></g><g
     id="g3153"
     transform="translate(306.1113,551.2559)"><path
       d="m 0,0 c -121.926,-5.663 -219.037,-106.305 -219.037,-229.628 0,-123.327 97.109,-223.969 219.035,-229.63 L 0,0 z"
       style="fill:none;stroke:#231f20;stroke-width:3;stroke-linecap:butt;stroke-linejoin:miter;stroke-miterlimit:4;stroke-opacity:1;stroke-dasharray:none"
       id="path3155"
       inkscape:connector-curvature="0" /></g><g
     id="g3157"
     transform="translate(101.1699,305.3613)"><path
       d="m 0,0 c 0,0 -2.169,82.952 204.94,70.479 l 0,47.714 C 204.94,118.193 21.688,124.7 0,0"
       style="fill:#ffffff;fill-opacity:1;fill-rule:nonzero;stroke:none"
       id="path3159"
       inkscape:connector-curvature="0" /></g><g
     id="g3161"
     transform="translate(101.1699,305.3613)"><path
       d="m 0,0 c 0,0 -2.169,82.952 204.94,70.479 l 0,47.714 C 204.94,118.193 21.688,124.7 0,0 z"
       style="fill:none;stroke:#231f20;stroke-width:3;stroke-linecap:butt;stroke-linejoin:miter;stroke-miterlimit:4;stroke-opacity:1;stroke-dasharray:none"
       id="path3163"
       inkscape:connector-curvature="0" /></g><g
     id="g3165"
     transform="translate(35.0259,509.2173)"><path
       d="M 0,0 105.25,-40.515"
       style="fill:none;stroke:#231f20;stroke-width:3;stroke-linecap:butt;stroke-linejoin:miter;stroke-miterlimit:4;stroke-opacity:1;stroke-dasharray:none"
       id="path3167"
       inkscape:connector-curvature="0" /></g><g
     id="g3169"
     transform="translate(35.0259,129.6992)"><path
       d="M 0,0 105.79,44.215"
       style="fill:none;stroke:#231f20;stroke-width:3;stroke-linecap:butt;stroke-linejoin:miter;stroke-miterlimit:4;stroke-opacity:1;stroke-dasharray:none"
       id="path3171"
       inkscape:connector-curvature="0" /></g><g
     id="g3173"
     transform="translate(601.3213,130.7832)"
     style="fill:#ffffff;fill-opacity:1"><path
       d="m 0,0 -271.085,-125.783 0,630 L 0,379.518 0,0 z"
       style="fill:#ffffff;fill-opacity:1;stroke:#231f20;stroke-width:3;stroke-linecap:butt;stroke-linejoin:miter;stroke-miterlimit:4;stroke-opacity:1;stroke-dasharray:none"
       id="path3175"
       inkscape:connector-curvature="0" /></g><g
     id="g3177"
     transform="translate(330.2354,88.7451)"><path
       d="m 0,0 c 121.925,5.661 219.036,106.305 219.036,229.628 0,123.326 -97.111,223.967 -219.035,229.63 L 0,0 z"
       style="fill:#3366ff;fill-opacity:1;fill-rule:nonzero;stroke:none"
       id="path3179"
       inkscape:connector-curvature="0" /></g><g
     id="g3181"
     transform="translate(330.2354,88.7451)"><path
       d="m 0,0 c 121.925,5.661 219.036,106.305 219.036,229.628 0,123.326 -97.111,223.967 -219.035,229.63 L 0,0 z"
       style="fill:none;stroke:#231f20;stroke-width:3;stroke-linecap:butt;stroke-linejoin:miter;stroke-miterlimit:4;stroke-opacity:1;stroke-dasharray:none"
       id="path3183"
       inkscape:connector-curvature="0" /></g><g
     id="g3185"
     transform="translate(535.1748,334.6392)"><path
       d="m 0,0 c 0,0 2.17,-82.953 -204.938,-70.481 l 0,-47.713 c 0,0 183.253,-6.506 204.938,118.194"
       style="fill:#ffffff;fill-opacity:1;fill-rule:nonzero;stroke:none"
       id="path3187"
       inkscape:connector-curvature="0" /></g><g
     id="g3189"
     transform="translate(535.1748,334.6392)"><path
       d="m 0,0 c 0,0 2.17,-82.953 -204.938,-70.481 l 0,-47.713 c 0,0 183.253,-6.506 204.938,118.194 z"
       style="fill:none;stroke:#231f20;stroke-width:3;stroke-linecap:butt;stroke-linejoin:miter;stroke-miterlimit:4;stroke-opacity:1;stroke-dasharray:none"
       id="path3191"
       inkscape:connector-curvature="0" /></g><g
     id="g3193"
     transform="translate(601.3213,130.7832)"><path
       d="M 0,0 -105.248,40.516"
       style="fill:none;stroke:#231f20;stroke-width:3;stroke-linecap:butt;stroke-linejoin:miter;stroke-miterlimit:4;stroke-opacity:1;stroke-dasharray:none"
       id="path3195"
       inkscape:connector-curvature="0" /></g><g
     id="g3197"
     transform="translate(601.3213,510.3008)"><path
       d="M 0,0 -105.79,-44.215"
       style="fill:none;stroke:#231f20;stroke-width:3;stroke-linecap:butt;stroke-linejoin:miter;stroke-miterlimit:4;stroke-opacity:1;stroke-dasharray:none"
       id="path3199"
       inkscape:connector-curvature="0" /></g></g>
</g></g></svg>