<?xml version="1.0" encoding="UTF-8" standalone="no"?>
<!-- Created with Inkscape (http://www.inkscape.org/) -->

<svg
   xmlns:dc="http://purl.org/dc/elements/1.1/"
   xmlns:cc="http://creativecommons.org/ns#"
   xmlns:rdf="http://www.w3.org/1999/02/22-rdf-syntax-ns#"
   xmlns:svg="http://www.w3.org/2000/svg"
   xmlns="http://www.w3.org/2000/svg"
   xmlns:sodipodi="http://sodipodi.sourceforge.net/DTD/sodipodi-0.dtd"
   xmlns:inkscape="http://www.inkscape.org/namespaces/inkscape"
   width="180.57625"
   height="63.715164"
   id="svg3198"
   sodipodi:version="0.32"
   inkscape:version="0.48.0 r9654"
   version="1.0"
   sodipodi:docname="univ-rennes1.svg"
   inkscape:output_extension="org.inkscape.output.svg.inkscape">
  <defs
     id="defs3200">
    <inkscape:perspective
       sodipodi:type="inkscape:persp3d"
       inkscape:vp_x="0 : 526.18109 : 1"
       inkscape:vp_y="0 : 1000 : 0"
       inkscape:vp_z="744.09448 : 526.18109 : 1"
       inkscape:persp3d-origin="372.04724 : 350.78739 : 1"
       id="perspective3206" />
  </defs>
  <sodipodi:namedview
     id="base"
     pagecolor="#ffffff"
     bordercolor="#666666"
     borderopacity="1.0"
     inkscape:pageopacity="0.0"
     inkscape:pageshadow="2"
     inkscape:zoom="5.214065"
     inkscape:cx="100.91717"
     inkscape:cy="40.470299"
     inkscape:document-units="px"
     inkscape:current-layer="layer1"
     showgrid="false"
     inkscape:window-width="1347"
     inkscape:window-height="893"
     inkscape:window-x="1375"
     inkscape:window-y="45"
     fit-margin-top="2"
     fit-margin-left="0"
     fit-margin-right="2"
     fit-margin-bottom="0"
     inkscape:window-maximized="0" />
  <metadata
     id="metadata3203">
    <rdf:RDF>
      <cc:Work
         rdf:about="">
        <dc:format>image/svg+xml</dc:format>
        <dc:type
           rdf:resource="http://purl.org/dc/dcmitype/StillImage" />
        <dc:title />
      </cc:Work>
    </rdf:RDF>
  </metadata>
  <g
     inkscape:label="Calque 1"
     inkscape:groupmode="layer"
     id="layer1"
     transform="translate(-310.71187,-381.20228)">
    <path
       d="m 310.71187,407.4062 1.27875,0 0,6.42 c 0,2.19625 0.6675,2.7525 1.87625,2.7525 1.20875,0 1.87626,-0.55625 1.87626,-2.7525 l 0,-6.42 1.27749,0 0,6.365 c 0,2.77875 -1.0275,3.8775 -3.15375,3.8775 -2.12625,0 -3.155,-1.09875 -3.155,-3.8775 l 0,-6.365"
       style="fill:#f7931d;fill-opacity:1;fill-rule:nonzero;stroke:none"
       id="path13"
       inkscape:connector-curvature="0" />
    <path
       d="m 327.85938,407.4062 0,10.03375 -1.75,0 -3.96,-8.69875 -0.0288,0 0,8.69875 -1.13875,0 0,-10.03375 1.80625,0 3.90501,8.58875 0.0275,0 0,-8.58875 1.13876,0"
       style="fill:#f7931d;fill-opacity:1;fill-rule:nonzero;stroke:none"
       id="path15"
       inkscape:connector-curvature="0" />
    <path
       d="m 332.01437,417.43995 1.27838,0 0,-10.03325 -1.27838,0 0,10.03325 z"
       style="fill:#f7931d;fill-opacity:1;fill-rule:nonzero;stroke:none"
       id="path17"
       inkscape:connector-curvature="0" />
    <path
       d="m 340.86687,417.43995 -1.5275,0 -2.905,-10.03375 1.39,0 2.2925,8.82375 0.0275,0 2.34875,-8.82375 1.30625,0 -2.9325,10.03375"
       style="fill:#f7931d;fill-opacity:1;fill-rule:nonzero;stroke:none"
       id="path19"
       inkscape:connector-curvature="0" />
    <path
       d="m 346.77312,417.43995 0,-10.03375 5.17,0 0,1.1125 -3.89125,0 0,3.22375 3.61251,0 0,1.11125 -3.61251,0 0,3.47375 3.97375,0 0,1.1125 -5.2525,0"
       style="fill:#f7931d;fill-opacity:1;fill-rule:nonzero;stroke:none"
       id="path21"
       inkscape:connector-curvature="0" />
    <path
       d="m 356.63937,412.8262 0,4.61375 -1.27875,0 0,-10.03375 3.46125,0 c 1.77875,0 2.40375,1.25125 2.40375,2.50125 0,1.18125 -0.6525,2.085 -1.835,2.29375 l 0,0.0275 c 1.15375,0.18 1.57125,0.57 1.64,2.585 0.0138,0.43 0.1525,2.00125 0.3475,2.62625 l -1.33375,0 c -0.36125,-0.695 -0.2775,-2.00125 -0.38875,-3.335 -0.0975,-1.2225 -1.08375,-1.27875 -1.515,-1.27875 l -1.50125,0 z m 0,-1.11125 1.91875,0 c 0.91626,0 1.36125,-0.7925 1.36125,-1.66875 0,-0.72125 -0.36124,-1.5275 -1.3475,-1.5275 l -1.9325,0 0,3.19625"
       style="fill:#f7931d;fill-opacity:1;fill-rule:nonzero;stroke:none"
       id="path23"
       inkscape:connector-curvature="0" />
    <path
       d="m 365.76937,414.45245 0,0.29125 c 0,1.3625 0.8625,1.7925 1.68126,1.7925 1.01499,0 1.79374,-0.43 1.79374,-1.625 0,-2.22375 -4.5025,-1.97375 -4.5025,-4.99 0,-1.7775 1.265,-2.7225 2.94625,-2.7225 1.83376,0 2.8625,0.88875 2.77876,2.93125 l -1.33375,0 c 0.0137,-1.0975 -0.33376,-1.82 -1.54251,-1.82 -0.76499,0 -1.54249,0.38875 -1.54249,1.4725 0,2.21 4.50249,1.89 4.50249,5.0725 0,2.1125 -1.45875,2.79375 -3.11249,2.79375 -2.96001,0.0275 -2.96001,-2.23875 -2.9325,-3.19625 l 1.26374,0"
       style="fill:#f7931d;fill-opacity:1;fill-rule:nonzero;stroke:none"
       id="path25"
       inkscape:connector-curvature="0" />
    <path
       d="m 374.34438,417.43995 1.27837,0 0,-10.03325 -1.27837,0 0,10.03325 z"
       style="fill:#f7931d;fill-opacity:1;fill-rule:nonzero;stroke:none"
       id="path27"
       inkscape:connector-curvature="0" />
    <path
       d="m 385.33687,407.4062 0,1.1125 -2.64125,0 0,8.92125 -1.2775,0 0,-8.92125 -2.64124,0 0,-1.1125 6.55999,0"
       style="fill:#f7931d;fill-opacity:1;fill-rule:nonzero;stroke:none"
       id="path29"
       inkscape:connector-curvature="0" />
    <path
       d="m 388.32437,417.43995 0,-10.03375 5.17,0 0,1.1125 -3.89125,0 0,3.22375 3.6125,0 0,1.11125 -3.6125,0 0,3.47375 3.97375,0 0,1.1125 -5.2525,0 z m 4.0025,-13.04875 -1.82,1.95875 -0.9325,0 1.2375,-1.95875 1.515,0"
       style="fill:#f7931d;fill-opacity:1;fill-rule:nonzero;stroke:none"
       id="path31"
       inkscape:connector-curvature="0" />
    <path
       d="m 401.72062,407.4062 3.08501,0 c 1.27875,0 2.195,0.45875 2.69624,1.52875 0.4025,0.8475 0.44375,2.84875 0.44375,3.16875 0,2.14 -0.19375,3.37625 -0.61124,4.04375 -0.5425,0.86125 -1.55626,1.2925 -3.30751,1.2925 l -2.30625,0 0,-10.03375 z m 1.27875,8.92125 1.20875,0 c 1.77875,0 2.43125,-0.66625 2.43125,-3.00125 l 0,-2.02875 c 0,-2.02875 -0.625,-2.77875 -1.96,-2.77875 l -1.68,0 0,7.80875"
       style="fill:#f7931d;fill-opacity:1;fill-rule:nonzero;stroke:none"
       id="path33"
       inkscape:connector-curvature="0" />
    <path
       d="m 411.85062,417.43995 0,-10.03375 5.17,0 0,1.1125 -3.89125,0 0,3.22375 3.6125,0 0,1.11125 -3.6125,0 0,3.47375 3.97501,0 0,1.1125 -5.25376,0"
       style="fill:#f7931d;fill-opacity:1;fill-rule:nonzero;stroke:none"
       id="path35"
       inkscape:connector-curvature="0" />
    <path
       d="m 337.58562,421.5262 c 4.67125,0 7.5825,2.47 7.5825,6.465 0,2.675 -1.3875,4.67125 -3.85999,5.65375 2.09999,1.3875 3.385,3.52125 5.14624,6.39875 0.9825,1.59 1.5575,2.36875 3.14751,4.57 l -3.96001,0 -3.04625,-4.74 c -3.0475,-4.74 -4.435,-5.28 -6.1275,-5.28 l -1.3875,0 0,10.02 -3.3175,0 0,-23.0875 5.8225,0 z m -2.505,10.0875 2.13125,0 c 3.555,0 4.57125,-1.82875 4.5375,-3.7575 -0.0337,-2.16625 -1.32,-3.48625 -4.5375,-3.48625 l -2.13125,0 0,7.24375"
       style="fill:#f7931d;fill-opacity:1;fill-rule:nonzero;stroke:none"
       id="path37"
       inkscape:connector-curvature="0" />
    <path
       d="m 365.24187,424.50495 -9.78375,0 0,6.97375 9.44625,0 0,2.97875 -9.44625,0 0,7.17625 10.08876,0 0,2.98 -13.40626,0 0,-23.0875 13.10125,0 0,2.97875"
       style="fill:#f7931d;fill-opacity:1;fill-rule:nonzero;stroke:none"
       id="path39"
       inkscape:connector-curvature="0" />
    <path
       d="m 390.42812,444.6137 -2.84375,0 -15.43625,-17.77375 0,17.77375 -3.11375,0 0,-23.0875 2.63876,0 15.64124,17.87375 0,-17.87375 3.11375,0 0,23.0875"
       style="fill:#f7931d;fill-opacity:1;fill-rule:nonzero;stroke:none"
       id="path41"
       inkscape:connector-curvature="0" />
    <path
       d="m 416.86563,444.6137 -2.84376,0 -15.43625,-17.77375 0,17.77375 -3.11375,0 0,-23.0875 2.64,0 15.64,17.87375 0,-17.87375 3.11376,0 0,23.0875"
       style="fill:#f7931d;fill-opacity:1;fill-rule:nonzero;stroke:none"
       id="path43"
       inkscape:connector-curvature="0" />
    <path
       d="m 435.04437,424.50495 -9.78375,0 0,6.97375 9.44625,0 0,2.97875 -9.44625,0 0,7.17625 10.08875,0 0,2.98 -13.405,0 0,-23.0875 13.1,0 0,2.97875"
       style="fill:#f7931d;fill-opacity:1;fill-rule:nonzero;stroke:none"
       id="path45"
       inkscape:connector-curvature="0" />
    <path
       d="m 449.83687,426.6037 c -1.9625,-1.86125 -3.85749,-2.40375 -5.41499,-2.40375 -2.13376,0 -3.65626,1.1175 -3.65626,2.74125 0,4.43625 9.98625,4.3675 9.98625,11.71375 0,3.6225 -2.7425,6.2625 -6.465,6.2625 -2.50499,0 -4.5375,-0.6775 -6.46625,-2.1325 l 0,-4.1975 c 1.69125,2.16625 3.82625,3.35125 6.0925,3.35125 2.57375,0 3.75876,-1.625 3.75876,-2.91125 0,-4.77375 -9.98626,-5.315 -9.98626,-11.645 0,-3.7575 2.77625,-6.16125 7.00751,-6.16125 1.75999,0 3.52124,0.5425 5.14374,1.625 l 0,3.7575"
       style="fill:#f7931d;fill-opacity:1;fill-rule:nonzero;stroke:none"
       id="path47"
       inkscape:connector-curvature="0" />
    <path
       d="m 474.33937,418.57495 -0.0187,-0.0113 0,-0.8475 -1.43501,0 -0.15375,0.47625 c -1.08875,1.41875 -4.75125,5.715 -10.665,7.92375 l 0.48125,1.44625 c 1.83125,-0.71375 3.40375,-1.5325 4.76375,-2.375 l 0,18.93 7.00876,0 0,-25.51375 c 0.005,-0.007 0.0175,-0.0238 0.0187,-0.0288"
       style="fill:#f7931d;fill-opacity:1;fill-rule:nonzero;stroke:none"
       id="path49"
       inkscape:connector-curvature="0" />
    <g
       id="g3271">
      <path
         id="path107"
         style="fill:#a72c31;fill-opacity:1;fill-rule:nonzero;stroke:none"
         d="m 475.20812,400.8312 c -0.535,0 -0.7475,-0.45625 -0.6575,-1.06625 l 0.0312,-0.1225 c -0.44125,0.7325 -1.11249,1.25 -1.78375,1.25 -1.02125,0 -1.31,-0.99125 -1.08125,-2.28625 l 0.38125,-2.0725 c 0.06,-0.36625 0.03,-0.64125 -0.16875,-0.64125 -0.1825,0 -0.5025,0.22875 -0.60875,0.35125 l 0,-0.36625 c 0.28876,-0.305 0.7,-0.51875 0.99,-0.51875 0.53376,0 0.76251,0.4425 0.65625,1.0525 l -0.3825,2.11875 c -0.1825,0.99125 -0.075,1.63125 0.65625,1.63125 0.50375,0 1.3725,-0.7475 1.66125,-2.3325 l 0.39625,-2.27125 0.85375,0 -0.71625,4.10125 c -0.06,0.35 -0.045,0.62375 0.16876,0.62375 0.1675,0 0.48749,-0.22875 0.60999,-0.335 l 0,0.35 c -0.30625,0.305 -0.73375,0.53375 -1.00625,0.53375"
         inkscape:connector-curvature="0" />
      <path
         id="path109"
         style="fill:#a72c31;fill-opacity:1;fill-rule:nonzero;stroke:none"
         d="m 483.42188,400.14245 c -0.73375,0.94625 -1.61251,1.29375 -2.77251,1.29375 -1.95875,0 -3.15874,-1.4675 -3.15874,-3.27875 0,-1.93375 1.35999,-3.28 3.2,-3.28 1.75874,0 2.95749,1.2 2.95749,3.26625 l 0,0.3325 -5.03749,0 c 0.08,1.08 0.90624,2 2.03874,2 0.89375,0 1.49251,-0.32 1.98626,-0.94625 l 0.78625,0.6125 z m -0.8925,-2.54625 c -0.04,-1.0525 -0.7325,-1.75875 -1.88001,-1.75875 -1.14624,0 -1.90624,0.70625 -2.03874,1.75875 l 3.91875,0"
         inkscape:connector-curvature="0" />
      <path
         id="path111"
         style="fill:#a72c31;fill-opacity:1;fill-rule:nonzero;stroke:none"
         d="m 485.54187,401.13995 0,-6.02625 1.24875,0 0,1.9775 2.4975,0 0,4.04875 -3.74625,0 z m 2.4975,-2.8 -1.24875,0 0,1.55125 1.24875,0 0,-1.55125"
         inkscape:connector-curvature="0" />
      <path
         id="path113"
         style="fill:#a72c31;fill-opacity:1;fill-rule:nonzero;stroke:none"
         d="m 475.50312,394.64745 c 1.155,-1.66375 3.04875,-2.65625 5.06375,-2.65625 2.01001,0 3.90001,0.98875 5.05625,2.64625 l 0.40626,-0.2825 c -1.24876,-1.79 -3.29126,-2.8575 -5.46251,-2.8575 -2.1775,0 -4.2225,1.07125 -5.47125,2.86875 l 0.4075,0.28125 z m 10.13375,7.0075 c -1.15625,1.66875 -3.05125,2.665 -5.07,2.665 -2.02625,0 -3.92375,-1 -5.07875,-2.675 l -0.40625,0.28125 c 1.2475,1.80875 3.2975,2.8875 5.485,2.8875 2.18,0 4.22875,-1.075 5.47625,-2.87875 l -0.40625,-0.28"
         inkscape:connector-curvature="0" />
    </g>
    <g
       transform="matrix(0.16702447,0,0,0.16702447,374.76785,352.22497)"
       id="layer1-9"
       inkscape:label="Layer 1">
      <path
         inkscape:connector-curvature="0"
         id="path3536"
         d=""
         style="fill:#000000" />
      <path
         sodipodi:nodetypes="csssssssssssssscssssscssssscscssssssssccsscssscssscsssssssssscscsscssssscsscsssssscscsssssccsscssssssssssccsscssccscccscssssssssssssssssscssscsssssssssssssssssssssssssssssssssccscsssssssssssssssssssssssssssssssssssssssssccsccsccsscssssssssssssccscsssssccscccscsccsccscccsc"
         inkscape:connector-curvature="0"
         id="path3554"
         d="m 502.8733,413.93828 c -18.7806,-3.26859 -39.84972,-14.42783 -52.61958,-27.8699 -7.23597,-7.61688 -31.14684,-40.13598 -34.71222,-47.20908 -3.19471,-6.33776 -12.68443,-19.73744 -24.37532,-34.41843 -5.01408,-6.2965 -5.74473,-7.84132 -7.27019,-15.37131 -1.8652,-9.20701 -3.95892,-12.3605 -9.39855,-14.15574 -5.89693,-1.94616 -14.52615,1.69699 -13.0613,5.51432 0.47312,1.23292 -0.3988,1.51273 -4.71379,1.51273 -3.07243,0 -8.29727,1.04918 -12.44984,2.5 -7.63584,2.6678 -13.37802,3.14059 -17.78654,1.46448 -2.48267,-0.94391 -2.99295,-0.70063 -5.76792,2.75 -7.56461,9.40644 -15.7713,15.65038 -25.80921,19.63656 -15.03263,5.96965 -27.2547,1.05816 -31.30478,-12.57996 -4.37442,-14.73027 0.65189,-34.88772 13.36887,-53.6143 7.44288,-10.96012 24.75968,-30.51197 31.10647,-35.12132 l 2.5,-1.81562 0,4.96692 c 0,4.43912 0.38845,5.32291 3.65558,8.317 5.68976,5.21428 9.66301,5.87475 18.21462,3.02779 13.59178,-4.52492 38.9509,-5.63573 56.1298,-2.45867 18.19595,3.36515 37.25305,21.33101 51.83978,48.87133 l 5.53178,10.44422 -0.50995,-8.44422 c -1.06753,-17.6771 -6.10514,-36.84857 -12.54082,-47.72626 -3.01856,-5.102 -17.22469,-21.21798 -18.70347,-21.21793 -0.33953,1e-5 -0.69796,2.08958 -0.79651,4.64348 -0.21971,5.69358 -2.13814,8.05982 -5.20415,6.41894 -1.16416,-0.62305 -2.12162,-1.67947 -2.12769,-2.34762 -0.006,-0.66815 -2.27988,-3.68982 -5.05292,-6.71482 l -5.04189,-5.5 0.40607,5.24943 c 0.45717,5.90988 -1.10827,8.4847 -3.80023,6.25057 -0.825,-0.68469 -1.5,-1.76002 -1.5,-2.38962 0,-2.93413 -9.35942,-11.65185 -16.16465,-15.05636 -8.9695,-4.48726 -10.44818,-4.48357 -6.20504,0.0155 1.85156,1.96322 3.65424,4.77572 4.00597,6.25 0.35172,1.47427 1.07813,3.23768 1.61423,3.91867 2.02427,2.57134 -2.0267,2.39473 -4.62298,-0.20155 -4.66562,-4.66562 -11.12087,-6.7039 -20.62753,-6.51326 -4.675,0.0937 -9.4,0.0882 -10.5,-0.0124 -1.68365,-0.15393 -1.60456,-0.29813 0.5,-0.91162 5.07235,-1.47861 20.24201,-0.42954 26,1.79806 l 5.5,2.12779 -4.8268,-4.49453 c -6.43422,-5.9913 -6.08819,-8.03972 1.3523,-8.0054 5.91661,0.0273 12.80392,2.77745 18.0857,7.22178 1.6353,1.37601 3.09046,2.33334 3.23369,2.1274 0.14324,-0.20594 1.03764,-1.61655 1.98756,-3.13471 1.65267,-2.64129 1.84955,-2.69696 4.56715,-1.29164 1.56201,0.80775 5.20319,3.84987 8.0915,6.76028 l 5.25148,5.29164 -0.62296,-3.51737 c -0.54502,-3.07731 -0.28515,-3.72234 2.07719,-5.15572 2.65277,-1.60961 2.80012,-1.56143 8.39772,2.74583 7.07106,5.44106 12.94683,11.98051 18.35412,20.42726 5.56686,8.69603 7.09146,12.52285 10.15916,25.5 4.35241,18.41181 4.87736,31.59989 1.47328,37.01269 -1.62702,2.5871 1.15669,9.14643 9.56575,22.54005 3.26226,5.19599 9.61802,15.75403 14.12386,23.46231 9.8946,16.92673 19.1555,28.7565 27.3117,34.88767 10.2815,7.7287 16.3781,8.33675 22.4735,2.24141 3.53,-3.53002 5.4298,-8.85172 5.4385,-15.23417 0.013,-9.42345 -6.3886,-27.35076 -14.2511,-39.90996 -3.9659,-6.33504 -14.7877,-20.37164 -17.7322,-23 -1.2324,-1.1 -2.6215,-2.99582 -3.087,-4.21293 -0.4655,-1.21712 -2.5915,-3.31454 -4.7243,-4.66094 -4.8792,-3.0801 -14.1669,-13.52491 -14.1857,-15.95305 -0.01,-1.00481 -1.2516,-3.07691 -2.7641,-4.60466 -7.30595,-7.37963 -11.77379,-31.89904 -6.59561,-36.19655 2.54409,-2.11141 3.51232,0.98029 1.26549,4.04089 -1.43253,1.95136 -1.70413,3.30855 -1.10509,5.52208 1.28149,4.73524 2.89968,4.14445 3.13714,-1.14535 0.42366,-9.43722 0.55562,-10.79637 1.09608,-11.28949 0.30141,-0.275 1.73901,-2.56264 3.19469,-5.08364 9.2691,-16.05292 30.6603,-22.55122 49.5055,-15.03902 7.4129,2.95496 17.6899,8.20996 18.0851,9.24758 0.1834,0.48129 0.7697,0.87508 1.3031,0.87508 0.5333,0 2.6253,1.125 4.6488,2.5 2.0235,1.375 3.2945,2.5 2.8245,2.5 -0.47,0 -0.3171,0.64768 0.3399,1.43929 1.0266,1.23692 0.6571,1.29374 -2.6275,0.40415 -2.1022,-0.56933 -4.7221,-1.83357 -5.8221,-2.80944 -1.1,-0.97586 -2.675,-1.82717 -3.5,-1.89179 -0.825,-0.0646 -2.625,-0.23556 -4,-0.37986 -1.825,-0.19152 -2.465,0.19506 -2.3704,1.4318 0.121,1.58166 -0.045,1.58451 -2.5,0.0429 -1.4463,-0.9082 -3.9253,-2.70297 -5.5089,-3.98836 -2.6432,-2.14549 -3.668,-2.31273 -12.5,-2.04003 -7.7514,0.23935 -10.495,0.75167 -14.1207,2.63682 -8.6977,4.52232 -12,9.34897 -12,17.5391 0,2.44683 -0.4607,4.60234 -1.0237,4.79001 -0.6156,0.20519 -0.018,3.22092 1.5,7.56455 1.388,3.97283 2.5237,8.7543 2.5237,10.62548 0,3.5579 1.5118,4.59012 6.7691,4.62176 1.8931,0.0114 2.1693,0.4109 1.6671,2.41176 -0.5437,2.16647 -0.2103,2.46425 3.4515,3.08292 5.2119,0.88055 9.1123,3.93781 9.1123,7.14258 0,2.8648 4.1125,5.01887 11.5203,6.03423 7.6829,1.05305 5.3343,-2.03054 -8.0203,-10.53049 -9.608,-6.11533 -8.9777,-6.82724 0.8667,-0.97882 8.302,4.93212 13.7326,10.15516 19.6548,18.90336 2.4008,3.54646 9.8157,11.84811 16.4775,18.44811 13.3445,13.22066 16.4194,17.95115 19.501,30.00018 5.7191,22.36148 4.0976,41.64274 -5.0056,59.519 -3.4337,6.74287 -15.2965,17.94299 -23.4944,22.18191 -11.7162,6.05814 -25.2004,8.62474 -35.7061,6.79632 z M 512.0794,299.632 c 0,-1.26988 -0.6429,-3.18238 -1.4286,-4.25 -1.3609,-1.84917 -1.4619,-1.85521 -2.1314,-0.12736 -0.7909,2.04088 0.9728,6.68623 2.5386,6.68623 0.5618,0 1.0214,-1.03899 1.0214,-2.30887 z m -32.3333,-33.3578 c -0.3667,-0.36666 -0.9667,-0.36666 -1.3334,0 -0.3666,0.36667 -0.0666,0.66667 0.6667,0.66667 0.7333,0 1.0333,-0.3 0.6667,-0.66667 z m 48,-61 c -0.3667,-0.36666 -0.9667,-0.36666 -1.3334,0 -0.3666,0.36667 -0.0666,0.66667 0.6667,0.66667 0.7333,0 1.0333,-0.3 0.6667,-0.66667 z M 342.0794,194.44087 c 0,-0.275 -0.225,-0.5 -0.5,-0.5 -0.275,0 -0.5,0.225 -0.5,0.5 0,0.275 0.225,0.5 0.5,0.5 0.275,0 0.5,-0.225 0.5,-0.5 z m -8.69424,166.08566 c -2.48573,-2.13896 -2.80576,-3.08871 -2.80576,-8.32663 0,-4.93495 -0.46305,-6.51957 -2.80119,-9.58605 -4.85032,-6.36121 -6.01217,-10.3484 -5.34142,-18.33048 1.15401,-13.73288 7.5978,-24.72194 17.23103,-29.3853 3.84759,-1.86259 5.74177,-2.13485 12.04041,-1.73063 6.34633,0.40729 8.8629,1.17338 16.67285,5.07557 10.78616,5.38923 21.69832,13.83915 21.69832,16.80228 0,1.10749 0.42201,1.7528 0.9378,1.43402 0.51578,-0.31877 1.75328,0.56307 2.75,1.95964 0.99671,1.39658 2.82415,3.76834 4.06098,5.27058 1.23683,1.50224 2.24933,3.25634 2.25,3.89801 6.7e-4,0.64166 0.35497,1.31666 0.78734,1.5 1.27524,0.54073 5.21388,6.53028 5.21388,7.92883 0,0.74821 -0.60698,0.47433 -1.45026,-0.65437 -1.3967,-1.86943 -1.42893,-1.85649 -0.87252,0.35036 l 0.57774,2.29149 -3.52011,-2.07692 c -1.93606,-1.1423 -3.7513,-2.96097 -4.03386,-4.04149 -0.30429,-1.16359 -1.36734,-1.96457 -2.60737,-1.96457 -1.15149,0 -2.09362,-0.49814 -2.09362,-1.10699 0,-0.60884 -0.64416,-0.8598 -1.43147,-0.55768 -1.00045,0.38391 -1.31885,-0.0355 -1.05742,-1.39301 0.29812,-1.54804 -0.19182,-1.94232 -2.41354,-1.94232 -1.53318,0 -3.60208,-0.9 -4.59757,-2 -0.99549,-1.1 -2.67961,-2 -3.7425,-2 -1.06289,0 -4.72716,-1.56285 -8.14283,-3.473 -6.88631,-3.85104 -19.02562,-6.91262 -21.71083,-5.47554 -0.92058,0.49268 -1.95162,2.00278 -2.2912,3.35577 -0.33958,1.35299 -1.96634,3.4205 -3.61503,4.59447 -3.23443,2.30312 -4.23918,6.9983 -1.49761,6.9983 0.825,0 1.5,0.66158 1.5,1.47017 0,1.20254 1.68384,1.43242 9.25,1.26282 7.43127,-0.16658 10.67549,0.2599 16.5,2.16907 8.73572,2.86341 9.68108,4.96144 1.85933,4.12641 -2.56555,-0.2739 -13.87762,1.70761 -20.60933,3.61008 -4.89565,1.38358 -5.71505,2.01077 -7.45713,5.70791 -1.07643,2.28445 -2.0692,6.33367 -2.20617,8.99826 -0.23631,4.59704 -1.59594,7.65528 -3.40338,7.65528 -0.45199,0 -2.08439,-1.08645 -3.62756,-2.41434 z m 81.40449,-6.58566 c -0.28766,-1.1 -0.11514,-2 0.38337,-2 0.49851,0 0.90638,0.9 0.90638,2 0,1.1 -0.17252,2 -0.38337,2 -0.21085,0 -0.61872,-0.9 -0.90638,-2 z m -8.30574,-7.15451 c -0.44208,-0.7153 -0.27432,-0.88306 0.44098,-0.44098 1.15275,0.71244 1.54767,1.59549 0.71353,1.59549 -0.24254,0 -0.76207,-0.51953 -1.15451,-1.15451 z m -4.92858,-3.87062 c -1.55657,-1.6247 -2.58984,-3.19429 -2.29616,-3.48798 0.82241,-0.8224 3.87672,0.61268 3.29776,1.54947 -0.28105,0.45474 0.42959,1.4856 1.57918,2.29081 1.1496,0.80521 1.67599,1.72 1.16976,2.03286 -0.50623,0.31287 -2.19398,-0.76045 -3.75054,-2.38516 z m 11.52407,1.52513 c 0,-0.275 0.225,-0.5 0.5,-0.5 0.275,0 0.5,0.225 0.5,0.5 0,0.275 -0.225,0.5 -0.5,0.5 -0.275,0 -0.5,-0.225 -0.5,-0.5 z m -38,-5.5 c -0.825,-0.53316 -1.05,-0.96937 -0.5,-0.96937 0.55,0 1.675,0.43621 2.5,0.96937 0.825,0.53316 1.05,0.96937 0.5,0.96937 -0.55,0 -1.675,-0.43621 -2.5,-0.96937 z m 4,0.5 c 0,-0.275 0.225,-0.5 0.5,-0.5 0.275,0 0.5,0.225 0.5,0.5 0,0.275 -0.225,0.5 -0.5,0.5 -0.275,0 -0.5,-0.225 -0.5,-0.5 z m 5,0 c 0,-0.275 0.225,-0.5 0.5,-0.5 0.275,0 0.5,0.225 0.5,0.5 0,0.275 -0.225,0.5 -0.5,0.5 -0.275,0 -0.5,-0.225 -0.5,-0.5 z m 21,0 c 0,-0.275 0.225,-0.5 0.5,-0.5 0.275,0 0.5,0.225 0.5,0.5 0,0.275 -0.225,0.5 -0.5,0.5 -0.275,0 -0.5,-0.225 -0.5,-0.5 z m -18,-11 c 0,-0.275 0.225,-0.5 0.5,-0.5 0.275,0 0.5,0.225 0.5,0.5 0,0.275 -0.225,0.5 -0.5,0.5 -0.275,0 -0.5,-0.225 -0.5,-0.5 z m -2,-1 c 0,-0.275 0.225,-0.5 0.5,-0.5 0.275,0 0.5,0.225 0.5,0.5 0,0.275 -0.225,0.5 -0.5,0.5 -0.275,0 -0.5,-0.225 -0.5,-0.5 z m 116,-74 c 0,-0.275 0.225,-0.5 0.5,-0.5 0.275,0 0.5,0.225 0.5,0.5 0,0.275 -0.225,0.5 -0.5,0.5 -0.275,0 -0.5,-0.225 -0.5,-0.5 z m 67.606,-26.34794 -1.8941,-2.65206 2.3385,2.22222 c 1.2862,1.22222 2.1385,2.41565 1.894,2.65206 -0.2444,0.23641 -1.2967,-0.76359 -2.3384,-2.22222 z m -10.606,-5.15206 c -0.9013,-0.58246 -1.0246,-0.97549 -0.309,-0.98469 0.655,-0.008 1.4691,0.43469 1.809,0.98469 0.7673,1.24153 0.4211,1.24153 -1.5,0 z m -8.5,-4.20407 c -2.2,-1.16362 -3.488,-2.28941 -2.8621,-2.50176 0.6258,-0.21235 2.8261,0.7596 4.8895,2.15987 4.5287,3.07325 3.4732,3.25125 -2.0274,0.34189 z m 11.5,0.70407 c 0,-0.275 0.225,-0.5 0.5,-0.5 0.275,0 0.5,0.225 0.5,0.5 0,0.275 -0.225,0.5 -0.5,0.5 -0.275,0 -0.5,-0.225 -0.5,-0.5 z m -10,-4 c 0,-0.275 0.225,-0.5 0.5,-0.5 0.275,0 0.5,0.225 0.5,0.5 0,0.275 -0.225,0.5 -0.5,0.5 -0.275,0 -0.5,-0.225 -0.5,-0.5 z m -1.5955,-2.65451 c -0.4421,-0.7153 -0.2743,-0.88306 0.441,-0.44098 0.635,0.39244 1.1545,0.91197 1.1545,1.15451 0,0.83414 -0.8831,0.43922 -1.5955,-0.71353 z m -199.4045,-9.34549 c 0,-0.275 0.225,-0.5 0.5,-0.5 0.275,0 0.5,0.225 0.5,0.5 0,0.275 -0.225,0.5 -0.5,0.5 -0.275,0 -0.5,-0.225 -0.5,-0.5 z m -8.66667,-3.16667 c 0.36667,-0.36666 0.96667,-0.36666 1.33334,0 0.36666,0.36667 0.0667,0.66667 -0.66667,0.66667 -0.73333,0 -1.03333,-0.3 -0.66667,-0.66667 z m -5,-1 c 0.36667,-0.36666 0.96667,-0.36666 1.33334,0 0.36666,0.36667 0.0667,0.66667 -0.66667,0.66667 -0.73333,0 -1.03333,-0.3 -0.66667,-0.66667 z m 131.66667,0.28911 c 0,-0.20765 0.7875,-0.99515 1.75,-1.75 1.5861,-1.24387 1.6214,-1.2085 0.3776,0.37756 -1.30641,1.66575 -2.1276,2.19548 -2.1276,1.37244 z m 5.3333,-4.28911 c 0.3667,-0.36666 0.9667,-0.36666 1.3334,0 0.3666,0.36667 0.0666,0.66667 -0.6667,0.66667 -0.7333,0 -1.0333,-0.3 -0.6667,-0.66667 z m 12.7844,-3.26058 c -0.9382,-0.57987 -0.7222,-0.94292 0.7978,-1.34039 1.1465,-0.29982 2.0845,-0.16381 2.0845,0.30224 0,1.36217 -1.4898,1.89876 -2.8823,1.03815 z"
         style="fill:#a72c31;fill-opacity:1" />
    </g>
  </g>
</svg>
